<?xml version="1.0" encoding="utf-8"?>
<!-- Generator: Adobe Illustrator 15.1.0, SVG Export Plug-In  -->
<!DOCTYPE svg [
	<!ENTITY ns_flows "http://ns.adobe.com/Flows/1.0/">
]>
<svg version="1.2" baseProfile="tiny"
	 xmlns="http://www.w3.org/2000/svg" xmlns:xlink="http://www.w3.org/1999/xlink" xmlns:a="http://ns.adobe.com/AdobeSVGViewerExtensions/3.0/"
	 x="0px" y="0px" width="18px" height="20px" viewBox="-0.7597656 -0.0805664 18 20" xml:space="preserve">
<defs>
</defs>
<path fill="#B2B2B2" fill-rule="evenodd" d="M12.59375,3.9077148c-0.2128906-0.1269531-0.2109375-0.3994141-0.2578125-0.5898438
	C12.125,2.465332,11.7158203,1.7768555,11.0820313,1.2905273c-0.3144531-0.2421875-0.6318359-0.3876953-1.0683594-0.5898438
	C9.7832031,0.5942383,9.515625,0.4614258,9.3134766,0.4428711C8.7685547,0.394043,8.1665039,0.5756836,7.6918945,0.7749023
	C7.230957,0.9682617,6.7797852,1.2739258,6.5126953,1.5483398c-0.5043945,0.5185547-0.824707,1.2041016-0.7373047,2.359375
	c0.1503906,1.9833984,1.3583984,3.8349609,2.2851563,4.9755859c0.4199219-0.453125,0.6972656-0.9619141,1.1796875-1.2900391
	c0.1474609-0.1005859,0.3652344-0.1582031,0.5527344-0.2578125c0.4101563-0.2197266,0.8642578-0.4667969,1.5107422-0.5166016
	c0.359375-0.0273438,0.7138672,0.03125,1.0693359,0.0742188c0.9365234,0.1123047,1.625,0.2138672,2.2480469,0.7001953
	c0.1660156,0.1298828,0.3183594,0.3046875,0.4785156,0.4423828C15.6386719,8.496582,16.296875,9.1225586,16.5,9.8413086
	c-0.0019531,0.5107422,0.03125,0.96875-0.0732422,1.3632813c-0.1503906,0.5634766-0.4345703,1.0820313-0.8847656,1.3271484
	c0.2128906-0.9804688,0.6054688-1.8134766,0.2216797-2.6533203c-0.1367188-0.296875-0.4306641-0.5507813-0.6640625-0.8476563
	c-0.2177734-0.2783203-0.4199219-0.6367188-0.6630859-0.8115234c-0.1494141-0.1074219-0.4316406-0.1679688-0.6630859-0.2578125
	c-0.5703125-0.2197266-1.3847656-0.4550781-2.1748047-0.515625c-0.8369141-0.0644531-1.7568359,0.3535156-2.2480469,0.7373047
	C9.0195313,8.4418945,8.7773438,8.8686523,8.6132813,9.2885742C8.7753906,9.4848633,9.0039063,9.5756836,9.203125,9.730957
	c0.5644531,0.4394531,1.0898438,0.90625,1.5478516,1.5478516c0.4072266,0.5703125,0.8662109,1.1962891,1.2529297,1.8427734
	c0.3046875,0.5078125,0.5078125,1.0498047,0.4785156,1.953125c-0.0058594,0.1962891-0.0917969,0.3984375-0.109375,0.6259766
	c-0.0175781,0.2080078,0.0332031,0.4560547,0,0.6269531c-0.0634766,0.3232422-0.4404297,0.703125-0.7011719,1.0683594
	c-0.4013672,0.5654297-0.6933594,0.9775391-1.2519531,1.3642578c-0.4267578,0.2939453-0.6757813,0.3583984-1.4013672,0.4423828
	C8.5332031,19.2583008,8.109375,19.284668,7.765625,19.1655273c-0.3212891-0.1123047-0.6479492-0.4423828-0.9580078-0.6630859
	c-0.3071289-0.2197266-0.7792969-0.3798828-0.7739258-0.8115234c0.4189453-0.3730469,0.7709961,0.0595703,1.0317383,0.2216797
	c0.2001953,0.1240234,0.7299805,0.5107422,0.9951172,0.5527344c0.4482422,0.0703125,1.3066406-0.1240234,1.6210938-0.2578125
	c0.3554688-0.1523438,1.0029297-0.6171875,1.2167969-0.921875c0.1132813-0.1611328,0.1865234-0.4384766,0.2949219-0.6630859
	c0.1074219-0.2226563,0.2714844-0.4541016,0.2949219-0.6269531c0.0351563-0.2636719-0.0439453-0.7060547-0.0742188-1.1054688
	c-0.0800781-1.0693359-0.2529297-1.5498047-0.7001953-2.3583984c-0.4580078-0.8291016-0.7880859-1.34375-1.4736328-1.9902344
	C9.0117188,10.3266602,8.5742188,9.878418,8.3183594,9.878418c-0.2890625-0.0009766-0.5634766,0.3935547-0.7739258,0.7001953
	c-0.2260742,0.3291016-0.4389648,0.6220703-0.5893555,0.8476563c-0.4169922,0.6220703-0.8574219,1.2509766-1.2900391,1.6210938
	c-0.324707,0.2773438-0.9633789,0.5908203-1.5478516,0.7373047c-0.5380859,0.1347656-1.5263672,0.03125-2.0273438-0.1845703
	c-0.2705078-0.1162109-0.703125-0.3447266-0.8842773-0.4785156c-0.6049805-0.4482422-1.0766602-1.2578125-1.1791992-2.2851563
	c-0.0537109-0.5332031-0.034668-1.2197266,0.1469727-1.6220703C0.2836914,8.9711914,0.5742188,8.7602539,0.800293,8.5883789
	c0.2509766-0.1923828,0.4248047-0.3457031,0.8476563-0.3691406C1.5493164,8.6235352,1.1489258,8.6791992,0.9477539,8.9194336
	c-0.1181641,0.1416016-0.371582,0.5800781-0.4057617,0.8847656c-0.0185547,0.1679688,0.0576172,0.3466797,0.0737305,0.5527344
	c0.0146484,0.1855469-0.0258789,0.4082031,0,0.5898438c0.1411133,0.9882813,1.1030273,2.0019531,2.2480469,2.1376953
	c0.5429688,0.0644531,1.3217773,0.015625,1.8427734-0.1845703c0.1098633-0.0419922,0.2158203-0.1640625,0.3686523-0.2578125
	c0.1245117-0.0761719,0.309082-0.1113281,0.4052734-0.1845703C5.8125,12.206543,6.3022461,11.3911133,6.5493164,10.9838867
	c0.1455078-0.2392578,0.2983398-0.5185547,0.4423828-0.8115234c0.15625-0.3173828,0.3618164-0.6132813,0.331543-0.9208984
	c-0.0234375-0.2412109-0.253418-0.4013672-0.4790039-0.7001953c-0.3320313-0.4394531-0.6035156-0.9238281-0.8476563-1.4375
	C5.7192383,6.5307617,5.3535156,5.7553711,5.2226563,5.0131836C5.0576172,4.0776367,5.1538086,2.8012695,5.5175781,2.027832
	C5.6245117,1.800293,5.8198242,1.5727539,5.996582,1.3647461c0.1728516-0.203125,0.3481445-0.4472656,0.5161133-0.5898438
	c0.4824219-0.4111328,1.1328125-0.5,1.8798828-0.7001953c0.7822266-0.2099609,1.7910156,0.0712891,2.3945313,0.2578125
	c0.7041016,0.53125,1.453125,1.3261719,1.8066406,2.2851563C12.7441406,3.0258789,12.8710938,3.4594727,12.59375,3.9077148z"/>
</svg>
