<?xml version="1.0" encoding="utf-8"?>
<!-- Generator: Adobe Illustrator 15.1.0, SVG Export Plug-In  -->
<!DOCTYPE svg [
	<!ENTITY ns_flows "http://ns.adobe.com/Flows/1.0/">
]>
<svg version="1.2" baseProfile="tiny"
	 xmlns="http://www.w3.org/2000/svg" xmlns:xlink="http://www.w3.org/1999/xlink" xmlns:a="http://ns.adobe.com/AdobeSVGViewerExtensions/3.0/"
	 x="0px" y="0px" width="14px" height="22px" viewBox="-0.7260742 -0.5390625 14 22" xml:space="preserve">
<defs>
</defs>
<path fill-rule="evenodd" d="M9.3618164,0.0371094C9.3637695,0.0009766,9.4077148,0.0087891,9.4360352,0
	c0.3496094,0.0800781,0.5644531,0.2958984,0.8476563,0.4423828c0.375,0.4482422,0.5576172,1.4091797,0.40625,2.1748047
	c-0.0644531,0.3183594-0.3271484,0.5048828-0.5537109,0.7363281c-0.1308594,0.1337891-0.2050781,0.2978516-0.2939453,0.3691406
	C9.7114258,3.8261719,9.5229492,3.8466797,9.3989258,3.9433594c-0.1318359,0.1035156-0.3125,0.3144531-0.4042969,0.4794922
	c-0.0703125,0.125-0.0751953,0.3037109-0.1484375,0.4423828c-0.0654297,0.125-0.2011719,0.2216797-0.2578125,0.3310547
	c-0.1445313,0.28125-0.1894531,0.5859375-0.2949219,0.8847656c-0.0644531,0.0957031-0.15625,0.1630859-0.2578125,0.2216797
	c-0.171875,1.2167969-0.9633789,2.0087891-0.9580078,3.2792969c0.2021484,0.0712891,0.3164063-0.1816406,0.515625-0.2578125
	c0.3125-0.1181641,0.7138672-0.0878906,1.0322266-0.2207031c0.1621094-0.0957031,0.2441406-0.2714844,0.515625-0.2578125
	C9.4672852,8.4951172,10.0219727,8.1982422,10.652832,8.21875c0.203125,0.0068359,0.40625,0.1748047,0.5898438,0.0371094
	c0.0585938-0.1367188,0.0292969-0.3623047,0.0361328-0.5527344c0.1425781-0.1523438,0.2548828-0.3349609,0.4794922-0.4052734
	c0.0859375-0.34375,0.2753906-0.5849609,0.4414063-0.8476563c0.1308594,0.0048828,0.1328125,0.1376953,0.1855469,0.2207031
	c0.3300781-0.0253906,0.3623047-0.3496094,0.515625-0.5527344c0.203125,0.4335938,0.0019531,1.1337891-0.3320313,1.2900391
	c0.0244141-0.1962891-0.0283203-0.3154297-0.1103516-0.4052734c-0.3193359,0.2695313-0.4443359,0.7353516-0.8476563,0.9208984
	c-0.0087891,0.1630859-0.0751953,0.2685547-0.0732422,0.4423828c-0.2148438,0.1806641-0.4628906,0.3955078-0.8115234,0.4423828
	c-0.1728516,0.0224609-0.3427734-0.0478516-0.5166016-0.0371094c-0.4101563,0.0253906-0.71875,0.2841797-1.0683594,0.3320313
	C8.9262695,9.4042969,8.5864258,9.5810547,8.1469727,9.65625C8.121582,9.7548828,8.2231445,9.7275391,8.2563477,9.7666016
	C8.1879883,9.8945313,7.9946289,9.8974609,7.8881836,9.9882813c0.2177734,0.1152344,0.4443359,0.125,0.7001953,0.2578125
	c0.2021484,0.1044922,0.3886719,0.3105469,0.5898438,0.3681641c0.6152344,0.1767578,1.0498047-0.1386719,1.6582031-0.2207031
	c-0.0058594,0.2099609-0.4824219,0.4902344-0.7363281,0.5888672c-0.8486328,0.3320313-2.0097656-0.2138672-2.6914063-0.4414063
	c-0.159668,0.0556641-0.0195313,0.2685547-0.0361328,0.4052734c-0.1723633-0.0126953-0.159668-0.2089844-0.3320313-0.2216797
	c-0.277832,0.5478516,0.1420898,0.9335938,0.2211914,1.5849609c0.0112305,0.0927734-0.0136719,0.1738281,0,0.2578125
	C7.3325195,13,7.4536133,13.4648438,7.3354492,14.0048828c-0.1176758,0.5361328-0.5307617,1.0878906-0.8476563,1.5849609
	c-0.2319336,0.3632813-0.3989258,0.7705078-0.6264648,1.1796875c-0.1450195,0.2597656-0.4433594,0.8046875-0.3686523,1.2529297
	C5.5234375,18.2050781,5.75,18.4267578,5.9350586,18.6484375c0.3222656,0.3876953,0.5473633,0.6572266,0.9580078,0.9951172
	c0.3481445,0.2861328,0.4765625,0.4511719,1.0322266,0.4794922c0.2910156-0.3632813,0.5185547-0.7197266,0.1845703-1.1796875
	c-0.046875-0.0634766-0.1425781-0.1367188-0.2216797-0.2207031c-0.0859375-0.0927734-0.1435547-0.2285156-0.1845703-0.2578125
	c-0.25-0.1816406-0.6303711-0.1416016-0.8842773-0.1474609c-0.199707,0.1074219-0.1455078,0.4677734-0.2211914,0.7001953
	c-0.2197266-0.1669922-0.2573242-0.6513672-0.184082-0.9951172c0.7597656-0.2910156,1.7915039-0.0009766,2.2114258,0.4052734
	c0.1240234,0.3291016,0.234375,0.609375,0.1835938,0.9580078c-0.0478516,0.3417969-0.3261719,0.6132813-0.4785156,0.9580078
	c-0.1601563,0.3632813-0.1699219,0.7558594-0.4052734,0.9951172c-0.4589844-0.0087891-0.6542969-0.3984375-0.9213867-0.6259766
	c-0.1533203-0.1308594-0.3544922-0.1855469-0.5161133-0.3320313c-0.1865234-0.1689453-0.3168945-0.4375-0.5161133-0.6269531
	c-0.3251953-0.3085938-1.1469727-0.5947266-1.1791992-0.9208984c-0.0869141-0.875-0.0395508-1.5908203,0.1474609-2.2480469
	c0.0664063-0.234375,0.2016602-0.421875,0.2578125-0.6269531c0.0390625-0.140625,0.0073242-0.2841797,0.0371094-0.4052734
	C5.2753906,15.3876953,5.3818359,15.15625,5.4560547,15c0.0761719-0.1611328,0.1738281-0.3642578,0.2578125-0.4794922
	c0.1186523-0.1621094,0.3588867-0.2548828,0.4790039-0.4785156c0.3085938-0.5742188,0.1772461-1.78125,0.1845703-2.6171875
	c-0.1479492-0.0126953-0.1791992,0.0917969-0.2583008,0.1474609c-0.1835938-0.0615234-0.2753906-0.2158203-0.4790039-0.2578125
	C5.3994141,11.3808594,5.3125,11.6015625,5.1240234,11.7197266c-1.0507813,0.0810547-1.9975586,0.0615234-2.3217773-0.6630859
	c-0.0053711-0.4355469-0.0307617-0.890625,0.2211914-1.0683594c0.0664063,0.4003906-0.0087891,0.9423828,0.2949219,1.1054688
	c0.7211914,0.3164063,1.4599609-0.1298828,2.1005859-0.3691406c0.1791992-0.0664063,0.3876953-0.0673828,0.4790039-0.2207031
	c-0.0537109-0.3359375-0.4975586-0.2744141-0.7001953-0.4423828c-0.112793-0.09375-0.1254883-0.2597656-0.2211914-0.3681641
	c-0.0541992-0.0625-0.1586914-0.1054688-0.2578125-0.1845703C4.5092773,9.3408203,4.3188477,9.2402344,4.0551758,9.0664063
	C3.9208984,8.9775391,3.8125,8.8476563,3.6870117,8.7714844C3.5751953,8.7041016,3.4189453,8.6923828,3.28125,8.6240234
	c-0.1191406-0.0585938-0.2158203-0.171875-0.331543-0.2207031C2.8286133,8.3515625,2.6694336,8.3642578,2.5444336,8.2929688
	C2.3432617,8.1777344,2.2036133,7.9384766,1.9916992,7.8134766C1.8740234,7.7441406,1.7353516,7.6923828,1.6230469,7.6289063
	C1.5014648,7.5605469,1.4023438,7.46875,1.2915039,7.4082031c-0.1328125-0.0732422-0.284668-0.0732422-0.4057617-0.1474609
	C0.4580078,6.9980469,0.2851563,6.5087891,0.0014648,6.1552734c-0.003418-0.5195313-0.0078125-1.0400391,0.0737305-1.4746094
	c0.1567383,0.3955078,0.5874023,0.5175781,0.7368164,0.921875C0.6513672,5.59375,0.4628906,5.5097656,0.3701172,5.6386719
	c0.0771484,0.4755859,0.3706055,0.7353516,0.7001953,0.9589844c0.1401367-0.0488281,0.277832-0.1044922,0.4052734-0.1845703
	c0.1030273-0.0654297,0.1884766-0.2285156,0.2949219-0.1845703c0.0380859,0.0966797,0.0439453,0.2265625,0.0366211,0.3691406
	c0.0917969,0.1650391,0.1782227,0.3417969,0.2949219,0.4785156c0.1142578,0.1347656,0.2563477,0.3085938,0.3686523,0.4052734
	c0.0761719,0.0664063,0.2270508,0.1025391,0.331543,0.1845703c0.1020508,0.0800781,0.159668,0.2021484,0.2578125,0.2578125
	c0.3222656,0.1835938,0.6977539,0.0878906,1.105957,0.1845703c0.4169922,0.0976563,0.7695313,0.5234375,0.9213867,0.8847656
	C5.6323242,9.1582031,6.1640625,9.2460938,6.487793,9.6933594C6.4189453,9.1298828,6.1035156,8.6914063,5.9716797,8.1816406
	C5.9125977,7.953125,5.9331055,7.7666016,5.8613281,7.5917969c-0.1748047-0.4238281-0.5268555-0.5966797-0.7373047-1.03125
	C5.0698242,6.4482422,5.0654297,6.2910156,5.0136719,6.1552734C4.8930664,5.8369141,4.668457,5.4179688,4.7558594,4.828125
	C4.6108398,4.5957031,4.3754883,4.3564453,4.1660156,4.0537109C3.8325195,3.5732422,3.6391602,2.8632813,3.28125,2.3955078
	C3.0556641,2.1005859,2.4951172,1.7998047,2.5444336,1.4375c0.0151367-0.1132813,0.1728516-0.4951172,0.2578125-0.6630859
	C2.8984375,0.5830078,3.0854492,0.3447266,3.28125,0.3320313c-0.0361328,0.3330078-0.1655273,0.9375,0,1.2900391
	c0.1054688,0.2236328,0.3808594,0.3486328,0.5532227,0.5527344C3.9199219,2.2763672,3.956543,2.4208984,4.0551758,2.5429688
	c0.1704102,0.2099609,0.4707031,0.3652344,0.5898438,0.5527344c0.0805664,0.1269531,0.1523438,0.3769531,0.2211914,0.5527344
	c0.3666992,0.9414063,0.4536133,2.1289063,0.8842773,3.2070313c0.1586914,0.3964844,0.3632813,0.7548828,0.5161133,1.1425781
	C6.4287109,8.4091797,6.4472656,8.8671875,6.671875,9.2509766c0.2182617-0.2714844,0.0786133-0.6171875,0.1845703-0.9951172
	C6.9145508,8.0478516,7.1098633,7.84375,7.2250977,7.6289063C7.4614258,7.1865234,7.605957,6.7197266,7.7036133,6.1181641
	c0.0449219-0.2685547,0.0371094-0.5917969,0.1113281-0.8476563C7.9331055,4.859375,8.3168945,4.5302734,8.3676758,4.1279297
	c0.7294922-0.4492188,0.8652344-1.4931641,1.4375-2.1005859c0.0585938-0.5195313,0.2832031-1.0859375,0.0732422-1.5107422
	C9.7641602,0.2851563,9.5395508,0.21875,9.3618164,0.0371094z"/>
</svg>
