<?xml version="1.0" encoding="utf-8"?>
<!-- Generator: Adobe Illustrator 15.1.0, SVG Export Plug-In  -->
<!DOCTYPE svg [
	<!ENTITY ns_flows "http://ns.adobe.com/Flows/1.0/">
]>
<svg version="1.2" baseProfile="tiny"
	 xmlns="http://www.w3.org/2000/svg" xmlns:xlink="http://www.w3.org/1999/xlink" xmlns:a="http://ns.adobe.com/AdobeSVGViewerExtensions/3.0/"
	 x="0px" y="0px" width="14px" height="22px" viewBox="-0.909668 -0.3896484 14 22" xml:space="preserve">
<defs>
</defs>
<path fill-rule="evenodd" d="M5.8862305,20.7226563c0.0371094,0.1113281-0.0820313,0.0654297-0.1484375,0.0742188
	c0.0273438,0.1972656-0.0283203,0.3144531-0.0732422,0.4414063c-0.1953125-0.2099609,0.0556641-0.8652344-0.1845703-1.03125
	c-0.3779297-0.0146484-0.5283203-0.2578125-0.8105469-0.3691406c-0.1923828-0.2324219-0.328125-0.5400391-0.5898438-0.7363281
	c-0.2265625-0.1708984-0.6132813-0.2314453-0.5527344-0.5898438c0.2050781,0.0175781,0.4179688,0.0556641,0.5898438,0.1474609
	c0.3652344,0.1953125,0.6416016,0.6982422,1.0322266,0.7363281c0.1494141,0.0146484,0.2763672-0.1025391,0.4052734-0.1103516
	c0.25-0.0136719,0.5664063,0.1171875,0.8847656,0.0742188c0.2099609-0.2578125,0.5019531-0.3154297,0.8476563-0.4794922
	c0.1347656-0.0644531,0.2539063-0.1728516,0.4052734-0.2578125c0.1376953-0.078125,0.3027344-0.1386719,0.4423828-0.2216797
	c0.1425781-0.0839844,0.2597656-0.2353516,0.4052734-0.3310547c0.1708984-0.1123047,0.3603516-0.1699219,0.515625-0.2949219
	c0.0810547-0.0654297,0.1455078-0.1318359,0.2216797-0.1845703c0.0771484-0.0546875,0.1777344-0.1044922,0.2207031-0.1474609
	c0.0722656-0.0712891,0.0908203-0.2099609,0.1835938-0.3310547c0.1855469-0.2412109,0.3925781-0.3808594,0.5898438-0.6640625
	c0.2148438-0.3056641,0.3955078-0.7988281,0.4794922-1.2900391c0.2529297-0.3339844,0.6533203-1.9042969,0.2949219-2.3955078
	c-0.0751953-0.1025391-0.2373047-0.2109375-0.3681641-0.1835938c-0.3251953,0.0654297-0.3710938,0.9326172-0.4423828,1.2900391
	c-0.2158203,0.3857422-0.3701172,0.8339844-0.4794922,1.3261719c-0.0996094,0.0722656-0.2011719,0.1435547-0.2207031,0.2949219
	c-0.2304688,0.0273438-0.2714844,0.2441406-0.5527344,0.2216797c-0.3769531,0.1884766-0.6162109,0.5136719-0.921875,0.7734375
	c-0.7832031-0.0546875-1.1503906,0.3984375-1.7695313,0.2207031c-0.7304688,0.4863281-1.6953125-0.125-1.953125-0.7001953
	c0.3320313,0.3974609,0.9746094,0.3535156,1.2539063-0.0732422c0.3720703,0.0097656,0.5341797-0.3466797,0.9208984-0.2949219
	c0.2041016,0.0273438,0.3564453,0.0761719,0.7001953,0c0.2089844-0.046875,0.5136719-0.1289063,0.6269531-0.1845703
	c0.1699219-0.0820313,0.25-0.2373047,0.4052734-0.4052734c0.6904297-0.0390625,1.1357422-0.8212891,0.7001953-1.4375
	c0.1376953-0.4814453,0.5380859-0.8476563,0.2207031-1.4003906c-0.2773438-0.1308594-0.4550781-0.2880859-0.7734375-0.2207031
	c-0.328125,0.0693359-0.4609375,0.5322266-0.6269531,0.7373047c-0.21875,0.0810547-0.3291016,0.2646484-0.515625,0.4052734
	c-0.0507813,0.0380859-0.1347656,0.0644531-0.1845703,0.1103516c-0.2080078,0.1904297-0.3417969,0.4921875-0.5888672,0.6630859
	c-0.0595703,0.0410156-0.2949219,0.125-0.4794922,0.2216797c-0.2900391,0.1503906-0.5625,0.3115234-0.9951172,0.3310547
	c-0.1367188,0.0068359-0.4199219,0.0097656-0.5527344-0.0361328c-0.1347656-0.0478516-0.2304688-0.2294922-0.3691406-0.2949219
	C3.6811523,13.9375,3.2163086,13.9335938,2.7163086,13.7939453c-0.0429688-0.1777344-0.1777344-0.2646484-0.1474609-0.515625
	c0.1494141-0.0839844,0.2675781,0.1376953,0.4052734,0.1835938c0.1933594-0.0214844,0.3876953,0.1416016,0.5898438,0.1474609
	c0.3164063,0.0107422,0.5996094-0.1767578,0.921875-0.1474609c0.1191406,0.0117188,0.2128906,0.1035156,0.3310547,0.1113281
	c0.28125,0.0166016,0.6572266-0.0400391,0.8847656-0.1474609c0.1767578-0.0839844,0.2724609-0.2958984,0.4794922-0.2587891
	c0.0654297-0.0927734,0.1132813-0.2050781,0.1464844-0.3310547c0.2089844-0.0917969,0.3300781-0.3251953,0.4794922-0.5166016
	c0.2568359-0.3261719,0.6201172-0.6181641,0.5898438-1.1416016c-0.2880859-0.0703125-0.3857422,0.1630859-0.7373047,0.2207031
	c-0.6699219,0.109375-1.4804688-0.3525391-1.6953125,0.2578125c-0.2314453,0.0488281-0.3808594,0.2148438-0.7001953,0.2578125
	c-0.4482422,0.0605469-1.0478516-0.0869141-1.4375,0c-0.3505859,0.0791016-0.4609375,0.3515625-0.5527344,0.6640625
	c-0.1162109-0.0429688-0.0771484-0.2421875-0.1845703-0.2949219c-0.1914063,0.2509766-0.1103516,0.6650391-0.1103516,1.0683594
	c0,0.3984375,0,0.8173828,0,1.1796875c0.0322266,0.171875-0.0947266-0.0507813-0.1103516,0.0732422
	c-0.0214844,0.2744141,0.0439453,0.6337891-0.0371094,0.8476563c-0.1035156-0.2333984-0.0976563-0.5585938-0.1103516-0.8476563
	c-0.0380859-0.8515625,0.0576172-1.9052734-0.1474609-2.6162109c-0.3222656-0.2548828-0.6445313-0.5107422-0.9951172-0.7373047
	c-0.0693359-0.234375-0.2226563-0.3896484-0.2578125-0.6630859c-0.0166016-0.125,0.0224609-0.2646484,0-0.4052734
	C0.2768555,9.9130859,0.1313477,9.6591797,0.0991211,9.3710938c-0.0332031-0.2988281,0.03125-0.6279297,0-0.9580078
	C0.0932617,8.3369141,0.0385742,8.2636719,0.0258789,8.1923828c-0.0791016-0.4521484,0.0439453-0.8916016,0.0732422-1.3271484
	c0.1318359,0.1308594,0.2177734,0.3369141,0.2578125,0.515625c0.0664063,0.2939453,0.0585938,0.7089844,0.1113281,1.0693359
	c0.0371094,0.2558594,0.0771484,0.7636719,0.2207031,0.9951172c0.0859375,0.1376953,0.1533203,0.3759766,0.2578125,0.5527344
	c0.0625,0.1025391,0.1445313,0.1552734,0.2216797,0.2578125c0.1474609,0.1962891,0.2470703,0.4501953,0.4423828,0.5898438
	c0.1123047,0.0800781,0.2851563,0.0693359,0.3681641,0.1845703c0.1347656,0.0234375,0.1416016-0.0800781,0.2587891-0.0742188
	c0.5117188,0.2373047,1.0615234,0.4052734,1.6210938,0.1845703c0.1054688-0.0419922,0.1845703-0.1435547,0.2949219-0.1845703
	c0.0917969-0.0341797,0.2128906-0.0039063,0.2949219-0.0371094c0.1953125-0.0791016,0.359375-0.2285156,0.515625-0.2949219
	c0.9082031-0.0214844,1.6894531-0.1445313,2.0273438-0.8105469C7.246582,9.6953125,7.6147461,9.9472656,7.7651367,9.6298828
	C7.769043,9.4658203,7.5004883,9.5751953,7.4331055,9.4824219c-0.3378906-0.2128906-0.6035156,0.078125-0.9941406,0.0361328
	C6.0991211,9.6621094,5.8198242,9.7734375,5.4428711,9.7402344C5.2827148,9.7255859,5.1225586,9.6103516,4.9643555,9.5927734
	C4.8256836,9.5771484,4.6899414,9.6474609,4.559082,9.6298828C4.4018555,9.6074219,4.1713867,9.4863281,3.9692383,9.4082031
	C3.7797852,9.3349609,3.519043,9.2646484,3.3803711,9.1875C3.1547852,9.0615234,3.0092773,8.8095703,2.8266602,8.6347656
	C2.6733398,8.4863281,2.3413086,8.3359375,2.347168,8.0078125c0.5058594,0.1367188,0.8867188,0.5068359,1.3271484,0.7744141
	c0.0712891,0.0429688,0.1845703,0.0644531,0.2587891,0.1103516C4.081543,8.9853516,4.4458008,9.1435547,4.7436523,9.1503906
	C4.8364258,9.1523438,4.940918,9.0908203,5.0385742,9.0761719C5.3588867,9.03125,5.7026367,9.1191406,5.9594727,9.0400391
	c0.1513672-0.046875,0.2587891-0.2412109,0.4423828-0.2949219c0.2646484-0.078125,1.203125,0.0595703,1.4003906,0.1835938
	c0.1455078,0.0927734,0.1621094,0.2607422,0.2578125,0.3320313c0.2695313,0.2001953,0.6445313,0.21875,1.0322266,0.0742188
	C9.222168,9.2861328,9.3393555,9.1552734,9.4975586,9.1132813c0.3671875-0.0976563,0.6816406,0.0214844,0.8847656-0.2207031
	c0.0644531-0.2558594,0.2226563-0.4160156,0.3320313-0.6269531c-0.0058594-0.1123047-0.1064453-0.2460938-0.1113281-0.3681641
	c-0.0117188-0.2919922,0.2089844-0.5927734,0.2578125-0.921875c0.0742188-0.4951172-0.0234375-1.0166016-0.1103516-1.4003906
	c-0.1083984-0.4804688-0.3896484-0.8740234-0.7001953-1.1425781C9.9926758,3.5185547,8.762207,3.5859375,8.8334961,2.6640625
	C8.644043,2.3876953,8.4428711,2.1210938,8.2075195,1.8896484c-0.4492188-0.0761719-1.0546875-0.0117188-1.4003906,0
	C6.6518555,1.9306641,6.6264648,2.1025391,6.4018555,2.0742188C6.3188477,2.4208984,5.925293,2.4580078,5.8120117,2.7744141
	C5.6645508,2.7988281,5.5795898,2.8847656,5.4428711,2.921875C5.324707,3.2089844,5.1479492,3.4365234,5.0014648,3.6953125
	C4.9370117,4.2236328,4.7036133,4.6396484,4.7807617,5.0966797c0.0292969,0.1806641,0.1962891,0.3232422,0.1464844,0.5527344
	C5.0200195,5.7568359,5.0776367,5.921875,5.1850586,6.0175781c0.0664063,0.0576172,0.1640625,0.0478516,0.2578125,0.1103516
	c0.1015625,0.0683594,0.1660156,0.2294922,0.2587891,0.2949219c0.1025391,0.0732422,0.2783203,0.1132813,0.4052734,0.1845703
	C6.3901367,6.765625,6.6499023,6.8847656,6.9916992,7.0498047C7.6694336,7.1132813,8.1225586,6.953125,8.5756836,6.7919922
	c0.171875-0.2197266,0.0019531-0.4755859-0.1835938-0.5527344C7.9301758,6.34375,7.2495117,6.3603516,6.8803711,6.1650391
	C6.6967773,5.734375,6.3334961,5.6894531,6.5854492,5.1328125c0.2705078-0.5927734,1.34375-0.8925781,1.7324219-0.2207031
	C8.5385742,4.9375,8.6430664,5.078125,8.9077148,5.0595703c0.0410156,0.1201172,0.2460938,0.1445313,0.3320313,0.2578125
	c0.0673828,0.0898438,0.0332031,0.21875,0.1103516,0.3681641c0.0322266,0.0634766,0.140625,0.078125,0.1845703,0.1474609
	c0.0527344,0.0830078,0.0859375,0.2910156,0.1464844,0.4423828C9.7475586,6.4375,9.8256836,6.5859375,9.8295898,6.6806641
	c0.0097656,0.3037109-0.21875,0.5537109-0.3320313,0.921875C9.456543,7.734375,9.3696289,8.0488281,9.2768555,8.1552734
	C9.1616211,8.2861328,8.8413086,8.4189453,8.7241211,8.4130859c-0.3535156-0.0175781-0.640625-0.5-1.0322266-0.6630859
	C7.5317383,7.6826172,7.206543,7.6289063,6.9916992,7.6025391C6.5678711,7.5507813,6.237793,7.6708984,5.737793,7.6396484
	C5.5473633,7.4863281,5.3022461,7.3867188,5.0756836,7.2705078C4.8979492,7.3789063,4.7661133,7.3730469,4.7807617,7.7128906
	C4.6772461,7.5458984,4.7905273,7.1630859,4.4487305,7.2333984C4.418457,7.2412109,4.4116211,7.2705078,4.3745117,7.2705078
	c-0.1601563,0.3789063,0,0.6552734-0.0732422,1.0693359C4.0805664,8.1230469,4.2124023,7.7636719,4.1538086,7.4550781
	C4.1313477,7.3369141,4.034668,7.2441406,4.0063477,7.1230469C3.9194336,6.7578125,4.0268555,6.3115234,3.7114258,6.1279297
	c0.1738281-0.4697266,0.0068359-1.1582031-0.0371094-1.5478516C3.8217773,4.2597656,3.887207,3.8964844,4.0795898,3.6220703
	c0.1738281-0.2480469,0.484375-0.3935547,0.6640625-0.6269531c0.0732422-0.0957031,0.0751953-0.2373047,0.1464844-0.3310547
	c0.078125-0.1025391,0.21875-0.1572266,0.2949219-0.2578125c0.2226563-0.2939453,0.3925781-0.6591797,0.6640625-0.9589844
	c0.0732422-0.0488281,0.1757813-0.0703125,0.2578125-0.1103516c0.28125-0.5576172,0.9140625-1.0166016,1.5117188-1.3261719
	c0.0898438-0.046875,0.2451172,0.0761719,0.3671875,0.0732422C8.0717773,0.2939453,8.2856445,0.375,8.3178711,0.6367188
	C8.5776367,0.8144531,8.7924805,1.0449219,9.019043,1.2636719c0.2246094,0.2167969,0.4960938,0.3701172,0.6992188,0.5898438
	c0.0839844,0.0898438,0.1308594,0.2324219,0.2216797,0.3310547c0.1806641,0.1972656,0.3994141,0.3652344,0.6630859,0.5166016
	c0.078125,0.1054688,0.0976563,0.2705078,0.2578125,0.2939453c0.1806641,0.5576172,0.6191406,0.8564453,0.6640625,1.5478516
	c0.2607422,0.5214844,0.5742188,1.0917969,0.515625,1.7695313c-0.0117188,0.1376953-0.0927734,0.2802734-0.1103516,0.4423828
	c-0.0146484,0.1259766,0.0244141,0.2841797,0,0.4052734c-0.0302734,0.1503906-0.1503906,0.2724609-0.1845703,0.4052734
	c-0.1181641,0.4628906-0.1054688,1.0693359-0.0371094,1.5478516c0.0332031,0.2236328,0.2294922,0.4814453,0.2578125,0.7744141
	c0.0615234,0.6162109-0.0888672,1.2705078-0.0361328,1.8789063c0.1181641,1.3632813,0.3662109,2.734375,0.0732422,3.9804688
	c-0.6660156,0.2919922-0.4443359,1.4716797-1.1796875,1.6953125c-0.0253906,0.1591797-0.1484375,0.2197266-0.109375,0.4423828
	c-0.2675781,0.2246094-0.4287109,0.4707031-0.6640625,0.7373047c-0.03125,0.0351563-0.0771484,0.0644531-0.1103516,0.1103516
	C9.800293,18.921875,9.6713867,18.9863281,9.387207,19.1376953c-0.1503906,0.0810547-0.3017578,0.2167969-0.4423828,0.2578125
	c-0.15625,0.0458984-0.3378906-0.0136719-0.515625,0.0371094c-0.1542969,0.0439453-0.265625,0.2119141-0.4433594,0.2949219
	c-0.1025391,0.0488281-0.2724609,0.0566406-0.4042969,0.1103516c-0.2324219,0.0947266-0.3710938,0.1884766-0.6640625,0.2949219
	C6.8208008,20.1689453,6.706543,20.234375,6.659668,20.2431641c-0.28125,0.0546875-0.6152344-0.0292969-0.7363281,0.1113281
	C5.8110352,20.4824219,5.9311523,20.6064453,5.8862305,20.7226563z"/>
</svg>
