<?xml version="1.0" encoding="utf-8"?>
<!-- Generator: Adobe Illustrator 15.1.0, SVG Export Plug-In  -->
<!DOCTYPE svg [
	<!ENTITY ns_flows "http://ns.adobe.com/Flows/1.0/">
]>
<svg version="1.2" baseProfile="tiny"
	 xmlns="http://www.w3.org/2000/svg" xmlns:xlink="http://www.w3.org/1999/xlink" xmlns:a="http://ns.adobe.com/AdobeSVGViewerExtensions/3.0/"
	 x="0px" y="0px" width="15px" height="23px" viewBox="-0.8632813 -0.8466797 15 23" xml:space="preserve">
<defs>
</defs>
<path fill="#B2B2B2" fill-rule="evenodd" d="M6.5224609,0c0.0332031,0.0166016,0.0664063,0.0332031,0.0742188,0.0742188
	C6.6650391,3.1269531,6.8251953,6.0859375,6.8916016,9.140625c0.1601563,0.0732422,0.4570313,0.0087891,0.5898438,0.1103516
	c0.2070313-2.3115234,0.3046875-4.7324219,0.4433594-7.1132813C7.9130859,2.0722656,7.9580078,2.0625,7.9599609,2.1015625
	c0.0410156,2.2685547-0.015625,4.7460938-0.0351563,7.0761719c0.4375-1.2324219,0.7519531-2.5898438,1.1425781-3.8701172
	C8.9619141,6.6269531,8.6513672,8.0625,8.4775391,9.4355469c0.1835938-0.1240234,0.2480469-0.3720703,0.3671875-0.5898438
	C9.0673828,8.4404297,9.3017578,8,9.5458984,7.5556641c0.1152344-0.2099609,0.2363281-0.4384766,0.4042969-0.5898438
	C9.5732422,7.9150391,9.1982422,8.8671875,8.8076172,9.8037109c0.0820313,0.1289063,0.1660156,0.2519531,0.2949219,0.3320313
	c0.609375-0.5097656,1.1777344-1.0595703,1.7324219-1.6220703c-0.0097656,0.1845703-0.1777344,0.3330078-0.2949219,0.4794922
	c-0.3476563,0.4335938-0.7675781,0.9277344-1.1054688,1.4003906c0.0703125,0.1259766,0.1855469,0.2080078,0.2949219,0.2949219
	c0.7714844-0.3339844,1.5039063-0.7089844,2.2480469-1.0693359c0.1191406,0.0429688-0.1289063,0.2275391-0.2207031,0.2949219
	c-0.2460938,0.1826172-0.5078125,0.359375-0.7734375,0.5527344c-0.125,0.0908203-0.2890625,0.1640625-0.40625,0.2587891
	c-0.3828125,0.3115234-0.5546875,0.8105469-0.9570313,1.03125c-0.9101563-0.7900391-1.4277344-1.9550781-3.2441406-1.7685547
	c-1.1582031,0.1181641-2.21875,0.8779297-2.7275391,1.6582031c-0.4990234-0.3359375-1.0068359-0.6640625-1.3642578-1.1425781
	c0.4462891,0.1074219,0.7949219,0.3115234,1.2539063,0.4052734c0.3183594-0.4521484-0.1992188-0.7519531-0.4423828-0.9951172
	C2.8134766,9.6318359,2.5146484,9.3388672,2.3212891,9.0664063c0.5302734,0.3544922,1.0273438,0.7421875,1.5117188,1.1425781
	c0.1630859-0.1064453,0.2753906-0.2646484,0.4414063-0.3681641c-0.3193359-0.8349609-0.609375-1.6992188-0.9208984-2.5429688
	c0.1767578,0.1542969,0.2607422,0.3867188,0.3681641,0.5898438c0.3027344,0.5722656,0.6328125,1.2304688,0.9960938,1.8056641
	C4.5224609,8.3652344,4.2548828,7.109375,4.0908203,5.75c0.3789063,1.1806641,0.6132813,2.5068359,0.9951172,3.6855469
	c0.3583984-0.0019531,0.1933594-0.4248047,0.1845703-0.6269531c-0.0898438-1.96875-0.1015625-4.2949219-0.2216797-6.3017578
	c0.1806641,0.5263672,0.1542969,1.09375,0.2216797,1.6582031C5.4619141,5.7792969,5.6865234,7.4726563,5.8232422,9.140625
	c0.1230469,0.0673828,0.3398438-0.0400391,0.5527344,0C6.4619141,6.1298828,6.4580078,3.0302734,6.5224609,0z"/>
<path fill="#B2B2B2" fill-rule="evenodd" d="M6.6708984,11.2412109c0.671875-0.1679688,1.2148438,0.1123047,1.4746094,0.4794922
	c0.078125,0.6679688-0.2324219,0.9462891-0.515625,1.2529297c-0.0488281-0.3300781,0.1328125-0.6767578,0.0722656-0.9951172
	C7.6162109,11.515625,7.1416016,11.3076172,6.6708984,11.2412109z"/>
<path fill="#B2B2B2" fill-rule="evenodd" d="M6.0810547,11.3515625c-0.0703125,0.2275391-0.2441406,0.3720703-0.2578125,0.5898438
	c-0.0341797,0.5214844,0.4433594,0.8701172,0.6992188,1.1796875c0.1992188,0.0839844,0.4082031,0.1582031,0.5175781,0.3310547
	c-0.3574219,0.1699219-0.859375-0.1787109-1.1435547-0.4052734c-0.2412109-0.1914063-0.5302734-0.5712891-0.5527344-0.7001953
	c-0.0175781-0.1044922,0.1240234-0.6982422,0.2216797-0.8105469C5.6669922,11.4179688,5.9404297,11.3867188,6.0810547,11.3515625z"
	/>
<path fill="#B2B2B2" fill-rule="evenodd" d="M2.6162109,12.1621094C2.7695313,12.2734375,2.5,12.5146484,2.4326172,12.6416016
	C1.6494141,12.6591797,0.7109375,12.7128906,0,12.6787109C0.8251953,12.4599609,1.7861328,12.3759766,2.6162109,12.1621094z"/>
<path fill="#B2B2B2" fill-rule="evenodd" d="M10.3193359,12.1621094c0.9609375,0.109375,1.9980469,0.140625,2.9492188,0.2587891
	c-0.8359375,0.1464844-1.8125,0.1533203-2.7285156,0.2207031C10.4658203,12.4833984,10.3291016,12.3867188,10.3193359,12.1621094z"
	/>
<path fill="#B2B2B2" fill-rule="evenodd" d="M9.9150391,13.3046875c0.1425781,0.3886719,0.3808594,0.578125,0.7363281,0.8115234
	c0.1640625,0.1074219,0.4394531,0.1679688,0.4414063,0.3681641c-0.4472656-0.0683594-0.9707031-0.0615234-1.3632813-0.1845703
	c-0.2636719,0.5625,0.375,1.1523438,0.515625,1.6953125c-0.0449219,0.1425781-0.1855469-0.1123047-0.2578125-0.1835938
	c-0.09375-0.0917969-0.1738281-0.2021484-0.2578125-0.2949219c-0.1757813-0.1933594-0.3964844-0.4873047-0.6621094-0.4052734
	c0.0039063,0.953125,0.2871094,1.9482422,0.3671875,2.9482422c-0.390625-0.8632813-0.5019531-2.0029297-0.921875-2.8378906
	c-0.1660156-0.0195313-0.2207031,0.0742188-0.3300781,0.1103516c0.1660156,2.0576172,0.2597656,4.1855469,0.4042969,6.265625
	c-0.3828125-1.9882813-0.59375-4.1484375-0.921875-6.1914063c-0.1621094,0.0458984-0.2460938,0.1699219-0.4042969,0.2207031
	c-0.09375,2.0078125-0.2695313,3.9316406-0.3691406,5.9335938c-0.1484375-0.3154297-0.0917969-0.7304688-0.109375-1.1425781
	c-0.0683594-1.5234375-0.1933594-3.1142578-0.2226563-4.4589844c-0.0058594-0.3027344-0.0039063-0.3466797-0.2949219-0.4423828
	c-0.2636719,0.0908203-0.21875,0.40625-0.2578125,0.6259766c-0.2841797,1.6298828-0.6289063,3.5214844-0.9208984,5.1972656
	c0.1181641-1.9462891,0.4287109-4.0185547,0.6259766-6.0078125c-0.1230469-0.0732422-0.2714844-0.1210938-0.4414063-0.1474609
	c-0.1884766,0.1425781-0.296875,0.3876953-0.40625,0.5898438c-0.3212891,0.5957031-0.6650391,1.2451172-0.9941406,1.8798828
	c0.0449219-0.4599609,0.3251953-0.8759766,0.515625-1.3271484c0.1894531-0.4501953,0.3486328-0.9296875,0.5527344-1.3632813
	c-0.0800781-0.1162109-0.2275391-0.1660156-0.3320313-0.2587891c-0.4394531,0.2236328-0.6542969,0.6728516-1.0683594,0.921875
	C3.6582031,15.4316406,3.7724609,15.2011719,3.9072266,15c0.1269531-0.1923828,0.3652344-0.3544922,0.3310547-0.5888672
	c-0.3525391-0.1953125-0.9052734,0.0205078-1.3642578-0.0371094c0.0097656-0.1435547,0.1699219-0.2148438,0.2578125-0.2949219
	c0.2802734-0.2539063,0.6015625-0.5527344,0.9589844-0.7744141c0.3808594,0.2314453,0.7167969,0.5097656,1.2529297,0.7373047
	c0.3105469,0.1318359,0.6396484,0.2822266,1.0693359,0.2949219c0.1933594,0.0058594,0.40625-0.0537109,0.6269531-0.0732422
	c0.21875-0.0195313,0.4667969,0.0009766,0.6621094-0.0371094c0.2519531-0.0498047,0.5566406-0.2021484,0.8476563-0.2949219
	C9.0908203,13.7597656,9.5302734,13.6064453,9.9150391,13.3046875z"/>
</svg>
