<?xml version="1.0" encoding="utf-8"?>
<!-- Generator: Adobe Illustrator 15.1.0, SVG Export Plug-In  -->
<!DOCTYPE svg [
	<!ENTITY ns_flows "http://ns.adobe.com/Flows/1.0/">
]>
<svg version="1.2" baseProfile="tiny"
	 xmlns="http://www.w3.org/2000/svg" xmlns:xlink="http://www.w3.org/1999/xlink" xmlns:a="http://ns.adobe.com/AdobeSVGViewerExtensions/3.0/"
	 x="0px" y="0px" width="13px" height="21px" viewBox="-0.7451172 -0.5405273 13 21" xml:space="preserve">
<defs>
</defs>
<path fill-rule="evenodd" d="M5.8886719,0.0014648C5.9316406-0.0043945,5.953125,0.0102539,5.9609375,0.0385742
	C5.9746094,3.222168,5.9511719,6.4594727,6.0351563,9.4731445C6.28125,9.4584961,6.5410156,9.2387695,6.5878906,9.0317383
	c0.0410156-0.1796875-0.03125-0.3955078-0.0371094-0.5898438c-0.015625-0.6142578,0.1425781-1.3818359,0.1855469-2.1376953
	c0.0429688-0.7578125,0.0058594-1.6904297,0.0722656-2.3583984c0.0078125-0.0644531,0.0234375-0.0771484,0.0371094-0.0371094
	C7.0527344,5.175293,6.8964844,6.6577148,6.9570313,7.9624023C6.9667969,8.1870117,7.03125,8.4135742,7.0664063,8.6254883
	c0.40625,0.0126953,0.5917969-0.1953125,0.7753906-0.4052734C7.7441406,5.965332,7.9726563,3.6499023,8.0996094,1.402832
	C8.078125,1.3276367,8.125,1.1118164,8.1367188,1.2915039c0.0097656,1.2558594,0.1054688,2.8623047,0.0371094,4.2382813
	C8.1445313,6.090332,7.9726563,6.6333008,8.1367188,7.1889648c0.0625,0.2167969,0.28125,0.3701172,0.2578125,0.5888672
	c0.1894531-0.0195313,0.4414063-0.2939453,0.5527344-0.515625c-0.0859375-1.4287109-0.0371094-3.03125,0.0742188-4.3857422
	C9.1582031,3.159668,9.0800781,3.5092773,9.09375,3.8344727c0.046875,1.1025391,0.0195313,2.3203125,0.1484375,3.3173828
	c0.2773438-0.1289063,0.5292969-0.28125,0.6992188-0.515625C9.9316406,5.777832,9.9785156,4.9780273,10.015625,4.1665039
	c0.3886719,0.1425781,0.2246094,0.6582031,0.2207031,1.0683594c-0.0019531,0.3613281,0.0703125,0.7158203,0.0371094,1.0322266
	C10.609375,6.012207,11.109375,5.6049805,11.5273438,5.309082c0.1640625,0.0175781,0.2753906-0.0185547,0.4042969-0.0371094
	c0.1191406,0.0546875-0.0605469,0.2363281-0.109375,0.2949219c-0.203125,0.2441406-0.5859375,0.5068359-0.8105469,0.7373047
	c-0.0449219,1.0859375-0.1542969,2.1074219-0.3320313,3.0585938c-0.0859375-0.8476563-0.0136719-1.8544922-0.0371094-2.7636719
	c-0.1113281-0.0605469-0.2597656,0.15625-0.3691406,0.2207031c-0.1347656,1.6591797-0.1953125,3.3916016-0.2949219,5.0859375
	c-0.1230469-1.4404297,0.0214844-3.2099609,0-4.7910156c-0.1191406-0.0214844-0.25,0.1289063-0.3691406,0.2216797
	c-0.125,0.0976563-0.265625,0.1738281-0.3300781,0.2949219C9.2402344,9.887207,9.40625,12.418457,9.0566406,14.4125977
	c-0.0175781,0.1025391,0.0039063,0.2705078-0.109375,0.3310547c-0.0039063-2.2089844,0.0136719-4.4912109,0-6.8544922
	c-0.2207031,0.09375-0.6230469,0.3056641-0.7011719,0.5898438c-0.1484375,0.5380859,0.0996094,1.3798828,0.1113281,1.9160156
	c0.0117188,0.5419922-0.0742188,1.1152344-0.0742188,1.6953125c0,0.5488281,0.0742188,1.109375,0.0742188,1.6582031
	c0,1.2099609-0.2265625,2.3847656-0.3691406,3.3173828c-0.1601563-1.3242188-0.109375-2.6914063-0.0742188-4.0546875
	c0.0136719-0.4648438-0.0703125-0.9091797-0.0351563-1.3632813c0.0585938-0.8046875,0.0527344-1.9140625,0-2.875
	C7.71875,8.7885742,7.1894531,9.0991211,7.140625,9.362793C7.1054688,9.5571289,7.2675781,9.7768555,7.2890625,9.9897461
	c0.0449219,0.4599609-0.0625,0.9980469-0.1113281,1.5849609c-0.0722656,0.8623047,0.1445313,1.8417969,0.0742188,2.7636719
	C7.2304688,14.605957,7.15625,14.8696289,7.140625,15.112793c-0.03125,0.5126953,0.0820313,0.9453125-0.0371094,1.4003906
	c-0.03125,0.1181641-0.0703125,0.2978516-0.1835938,0.3681641C6.875,14.5131836,6.9511719,11.980957,6.6992188,9.7319336
	C6.4433594,9.7954102,6.3007813,9.9731445,6.1464844,10.137207c-0.0019531,0.4833984,0.1113281,1.0087891,0.1464844,1.5107422
	c0.0625,0.8544922-0.1152344,1.7900391-0.0742188,2.7646484c0.0878906,1.9560547,0.0234375,3.8818359-0.3300781,5.3808594
	c-0.0917969-0.5058594-0.0234375-1.0009766,0-1.5117188c0.0214844-0.4902344-0.0800781-0.9726563-0.1113281-1.4736328
	c-0.0722656-1.1669922,0.0332031-2.3466797,0.0371094-3.5019531c0.0019531-0.9335938-0.2089844-1.8330078-0.2207031-2.7265625
	c-0.2070313,0.0390625-0.3652344,0.1259766-0.515625,0.2207031c0.0390625,1.5273438,0.0585938,3.1728516,0.0351563,4.6806641
	c-0.0078125,0.5458984,0.0527344,1.0908203,0,1.5849609c-0.0332031,0.3125-0.1347656,0.6425781-0.1835938,1.0683594
	c-0.015625,0.1386719,0,0.34375-0.1113281,0.4423828c-0.1699219-1.5390625,0.0332031-3.1816406-0.0351563-4.7539063
	C4.75,13.0688477,4.6464844,12.1987305,4.5976563,11.3530273c-0.1933594,0.0283203-0.4941406,0.2675781-0.6621094,0.4423828
	C3.84375,14.4243164,3.90625,17.0727539,3.8613281,19.6821289c-0.3085938-0.5029297-0.1171875-1.1875-0.1855469-1.8056641
	c-0.0253906-0.2392578-0.15625-0.4707031-0.1835938-0.7001953c-0.0273438-0.234375,0.0253906-0.4511719,0.0371094-0.7001953
	c0.0585938-1.3466797-0.0898438-2.8583984-0.0371094-4.2753906c-0.2363281,0.0351563-0.3730469,0.1679688-0.5898438,0.2216797
	c-0.171875,1.6337891,0.0625,3.6738281-0.2949219,5.1220703c-0.3554688-1.3798828-0.0859375-3.1972656-0.1835938-4.8642578
	c-0.2226563,0.0390625-0.421875,0.2753906-0.6269531,0.4785156c-0.375,0.375-0.6972656,0.8417969-1.1054688,1.2167969
	C0.5,14.5522461,0.3183594,14.7631836,0.0644531,14.8178711c-0.1386719-0.2392578-0.03125-0.4189453,0.1113281-0.5527344
	c0.0371094-0.0361328,0.1328125-0.0068359,0.1835938-0.0371094c0.0976563-0.0576172,0.1601563-0.2294922,0.2578125-0.3320313
	c0.2480469-0.2607422,0.7128906-0.4863281,0.8105469-0.8105469c0.0917969-0.2998047,0.0097656-0.8339844,0.0371094-1.2158203
	c0.0546875-0.7460938,0.2519531-1.4423828,0.2949219-2.2119141c0.0703125,0.90625,0.0488281,2.0390625,0,2.9482422
	c0.1738281-0.0839844,0.4746094-0.3613281,0.7011719-0.515625C2.390625,10.6987305,2.3867188,9.2709961,2.71875,8.184082
	c0.2089844,0.4833984-0.0039063,1.0488281-0.0371094,1.5839844c-0.0449219,0.7382813,0.0878906,1.4482422,0.1835938,2.1015625
	c0.1523438,0.0029297,0.3886719-0.2255859,0.5527344-0.3320313C3.3769531,9.878418,3.4121094,8.2133789,3.4921875,6.5249023
	C3.5410156,5.4858398,3.4882813,4.465332,3.640625,3.6137695c0.03125-0.1777344-0.0097656-0.390625,0.1464844-0.515625
	c0.0175781,2.6611328-0.0488281,5.5898438,0.1484375,8.1816406c0.2402344-0.0908203,0.4257813-0.2363281,0.5878906-0.4052734
	C4.4648438,8.3950195,4.546875,5.7709961,4.7089844,3.3920898C4.8671875,5.715332,4.7148438,8.3500977,5.078125,10.4682617
	c0.1132813,0.0517578,0.2871094-0.1523438,0.3671875-0.2578125C5.4511719,6.8129883,5.2890625,2.9301758,5.8886719,0.0014648z"/>
</svg>
