<?xml version="1.0" encoding="utf-8"?>
<!-- Generator: Adobe Illustrator 15.1.0, SVG Export Plug-In  -->
<!DOCTYPE svg [
	<!ENTITY ns_flows "http://ns.adobe.com/Flows/1.0/">
]>
<svg version="1.2" baseProfile="tiny"
	 xmlns="http://www.w3.org/2000/svg" xmlns:xlink="http://www.w3.org/1999/xlink" xmlns:a="http://ns.adobe.com/AdobeSVGViewerExtensions/3.0/"
	 x="0px" y="0px" width="17px" height="20px" viewBox="-0.2719727 -0.1733398 17 20" xml:space="preserve">
<defs>
</defs>
<path fill-rule="evenodd" d="M14.7456055,8.1040039c0.4101563,0.0214844,0.5625,0.2089844,0.8105469,0.4052734
	c0.2265625,0.1787109,0.5019531,0.3203125,0.6269531,0.5898438c0.1835938,0.4023438,0.1972656,1.0957031,0.1464844,1.6210938
	c-0.0761719,0.7988281-0.3125,1.3427734-0.7363281,1.8056641c-0.3242188,0.3525391-0.4707031,0.453125-0.8847656,0.7001953
	c-0.4375,0.2607422-1.2050781,0.5234375-1.953125,0.4794922c-0.6210938-0.0361328-1.3046875-0.34375-1.6953125-0.5898438
	c-0.5625-0.3525391-1.2089844-1.1894531-1.6230469-1.8056641c-0.1542969-0.2304688-0.3320313-0.5292969-0.5527344-0.8476563
	C8.6772461,10.1616211,8.4194336,9.7797852,8.1850586,9.762207C7.8862305,9.7387695,7.503418,10.1713867,7.2260742,10.425293
	c-0.6582031,0.6054688-1.0273438,1.1416016-1.4746094,1.953125c-0.4121094,0.75-0.6289063,1.2548828-0.6992188,2.2851563
	c-0.0273438,0.3955078-0.0683594,0.8789063-0.0371094,1.1425781c0.0488281,0.3925781,0.34375,0.9521484,0.5898438,1.2900391
	c0.2617188,0.3583984,0.7675781,0.7666016,1.1054688,0.921875c0.2851563,0.1298828,1.1542969,0.3330078,1.6582031,0.2578125
	c0.2832031-0.0429688,0.7441406-0.3935547,0.9960938-0.5527344c0.2792969-0.1787109,0.609375-0.546875,1.03125-0.2216797
	c0.03125,0.4365234-0.4589844,0.5859375-0.7734375,0.8115234c-0.6015625,0.4287109-0.859375,0.8251953-1.9902344,0.7363281
	c-0.1679688-0.0126953-0.3691406-0.0458984-0.5527344-0.0732422c-0.5058594-0.0761719-0.6953125-0.1455078-1.0683594-0.4052734
	c-0.7792969-0.5419922-1.3105469-1.5546875-1.8808594-2.3222656c0.0253906-0.9853516-0.2675781-1.8134766,0-2.6533203
	c0.1621094-0.5068359,0.6464844-1.1074219,0.9960938-1.5849609c0.7792969-1.0654297,1.5566406-2.1826172,2.7265625-2.8007813
	c-0.2167969-0.6787109-0.640625-1.0917969-1.2890625-1.4375C5.9038086,7.4213867,5.2280273,7.2700195,4.2416992,7.4399414
	C3.5327148,7.5620117,2.7241211,7.7670898,2.2143555,8.0668945C1.9663086,8.2124023,1.6987305,8.5219727,1.440918,8.840332
	c-0.4101563,0.5048828-0.8710938,0.9853516-0.8476563,1.8427734c0.0136719,0.5683594,0.3027344,1.0703125,0.4042969,1.6953125
	c-0.3417969-0.0507813-0.4511719-0.3935547-0.5898438-0.6630859C0.175293,11.262207-0.105957,10.5942383,0.0405273,9.762207
	c0.0839844-0.4804688,0.5546875-1.1074219,0.8847656-1.4375c0.1757813-0.1767578,0.4492188-0.3164063,0.6621094-0.515625
	C2.034668,7.3911133,2.3647461,7.1000977,3.0620117,6.9243164c0.9082031-0.2285156,2.3046875-0.296875,3.0957031,0
	c0.1796875,0.0673828,0.390625,0.2265625,0.5898438,0.3320313c0.203125,0.1083984,0.4453125,0.1884766,0.5898438,0.2949219
	c0.2011719,0.1484375,0.3515625,0.3916016,0.515625,0.5888672C8.0170898,8.340332,8.2358398,8.5131836,8.331543,8.7670898
	c0.5214844-0.5,1.0214844-1.2578125,1.4375-2.0634766c0.40625-0.7861328,0.7675781-1.7246094,0.8476563-2.6542969
	c0.0507813-0.5732422,0.0839844-1.1533203-0.109375-1.6582031C10.1655273,1.5092773,9.3120117,0.8696289,8.331543,0.5854492
	C7.9838867,0.4838867,7.5795898,0.3735352,7.1889648,0.4008789c-0.5625,0.0400391-1.3808594,0.5244141-1.8046875,0.8476563
	c-0.1328125,0.1005859-0.28125,0.2070313-0.3691406,0.2949219c-0.5878906,0.5927734-0.78125,1.4384766-1.03125,2.2851563
	C3.7124023,3.675293,3.7084961,3.3491211,3.7260742,3.128418c0.0175781-0.2548828,0.3046875-0.7675781,0.4042969-1.1054688
	c0.0996094-0.3369141,0.8398438-1.1894531,1.1425781-1.4375C6.3295898-0.277832,8.8491211-0.1401367,9.8803711,0.6958008
	c0.1875,0.1513672,0.3339844,0.4042969,0.515625,0.6269531c0.1796875,0.21875,0.4160156,0.3876953,0.515625,0.5888672
	c0.0742188,0.1484375,0.1015625,0.3398438,0.1484375,0.4794922c0.2089844,0.6210938,0.25,1.7949219,0.109375,2.5800781
	c-0.2246094,1.2568359-0.8476563,2.2851563-1.4726563,3.2431641C9.4838867,8.5375977,9.1245117,8.894043,9.1069336,9.1723633
	c-0.0175781,0.2539063,0.1875,0.6376953,0.3300781,0.921875c0.1464844,0.2880859,0.3417969,0.5449219,0.4804688,0.7734375
	c0.3964844,0.6591797,0.7246094,1.2333984,1.4003906,1.6582031c0.4101563,0.2587891,1.3144531,0.5302734,2.0996094,0.4423828
	c0.3339844-0.0371094,0.7675781-0.1992188,1.0703125-0.3681641c0.5839844-0.3291016,1.140625-1.0439453,1.2519531-1.6953125
	c0.03125-0.1777344,0.0195313-0.4121094,0.0371094-0.6269531c0.0703125-0.8330078-0.1640625-1.3359375-0.6640625-1.7314453
	C14.9858398,8.4448242,14.6831055,8.3725586,14.7456055,8.1040039z"/>
</svg>
