<?xml version="1.0" encoding="utf-8"?>
<!-- Generator: Adobe Illustrator 15.1.0, SVG Export Plug-In  -->
<!DOCTYPE svg [
	<!ENTITY ns_flows "http://ns.adobe.com/Flows/1.0/">
]>
<svg version="1.2" baseProfile="tiny"
	 xmlns="http://www.w3.org/2000/svg" xmlns:xlink="http://www.w3.org/1999/xlink" xmlns:a="http://ns.adobe.com/AdobeSVGViewerExtensions/3.0/"
	 x="0px" y="0px" width="15px" height="21px" viewBox="-0.8657227 -0.4189453 15 21" xml:space="preserve">
<defs>
</defs>
<path fill="#B2B2B2" fill-rule="evenodd" d="M6.5444336,0.0917969c0.71875-0.421875,1.015625,0.7431641,0.3691406,0.7734375
	C6.5776367,0.8818359,6.3413086,0.4697266,6.5444336,0.0917969z"/>
<path fill="#B2B2B2" fill-rule="evenodd" d="M7.4663086,11.8847656c-0.0117188,0.7128906,0.0351563,1.4091797,0.0371094,2.1376953
	c0.0019531,0.5068359-0.1386719,1-0.1464844,1.5117188c-0.0117188,0.6005859,0.1542969,1.2001953,0.1464844,1.8056641
	c-0.0039063,0.3164063-0.0449219,0.6337891-0.0371094,0.9580078c0.015625,0.6367188,0.0371094,1.1191406-0.1464844,1.6220703
	c-0.0761719,0.2080078-0.1425781,0.421875-0.40625,0.4414063c-0.3105469-0.1660156-0.140625-0.5517578-0.1113281-0.8837891
	c0.03125-0.3369141,0.0136719-0.7626953,0.0371094-1.1796875c0.0234375-0.3925781,0.0917969-0.8486328,0.0742188-1.1425781
	c-0.0097656-0.1542969-0.0898438-0.3085938-0.1113281-0.4794922c-0.1152344-1.0146484,0.1132813-2.2275391-0.0351563-3.2060547
	c-0.0488281-0.3173828-0.1875-0.5869141-0.2226563-0.8476563c-0.046875-0.359375,0.0449219-0.671875-0.109375-0.8476563
	c-0.1699219-0.1943359-0.5585938-0.1416016-0.8476563-0.2207031c-0.1425781-0.0390625-0.3203125-0.1308594-0.4804688-0.1845703
	c-0.6035156-0.2041016-0.7128906-0.2802734-1.1054688-0.7744141C3.612793,10.1054688,3.2241211,9.6455078,3.0444336,8.8994141
	C2.9584961,8.5439453,2.909668,8.0400391,2.9702148,7.7578125C3.0678711,7.3125,3.5092773,6.8691406,3.8178711,6.3935547
	c0.140625-0.2167969,0.2597656-0.4755859,0.40625-0.7001953c0.1425781-0.2216797,0.3339844-0.4140625,0.4414063-0.6259766
	c0.1015625-0.203125,0.1289063-0.3935547,0.2207031-0.5537109C5.050293,4.2304688,5.3354492,4.0556641,5.550293,3.7773438
	C5.6870117,3.5986328,5.7768555,3.3632813,5.9194336,3.1875c0.1445313-0.1806641,0.3320313-0.3144531,0.4414063-0.4794922
	C6.5092773,2.4853516,6.534668,2.1494141,6.7299805,2.0078125c0.0039063-0.0292969,0.1210938-0.1113281,0.109375-0.0371094
	C7.222168,2.0820313,7.5463867,2.6064453,7.7983398,2.9658203c0.0957031,0.1386719,0.1328125,0.3085938,0.2207031,0.40625
	c0.2246094,0.2460938,0.6308594,0.3876953,0.921875,0.6630859C9.0913086,4.1767578,9.253418,4.4111328,9.4194336,4.625
	c0.4414063,0.5615234,0.8066406,1.1943359,1.1796875,1.8789063c0.2285156,0.4179688,0.5957031,1.0644531,0.5898438,1.4013672
	c-0.0039063,0.2763672-0.296875,0.796875-0.40625,1.0683594c-0.1347656,0.3369141-0.2070313,0.7841797-0.3671875,1.0683594
	c-0.15625,0.2783203-0.4921875,0.5332031-0.8105469,0.8115234c-0.2929688,0.2548828-0.6152344,0.5761719-0.921875,0.7001953
	C8.2749023,11.71875,7.8276367,11.6679688,7.4663086,11.8847656z M7.2084961,10.484375
	c0.0566406,0.2421875,0.3027344,0.6357422,0.515625,0.7001953c0.5292969,0.1611328,0.9726563-0.2861328,1.4003906-0.5898438
	c0.4882813-0.3457031,0.8203125-0.609375,1.0332031-1.1054688c0.1113281-0.2607422,0.0917969-0.4511719,0.1835938-0.7363281
	c0.0996094-0.3085938,0.3457031-0.5605469,0.3691406-0.8476563c-0.1289063-0.5566406-0.3222656-0.8623047-0.5898438-1.2900391
	c-0.328125-0.5253906-0.5605469-1.0429688-0.8847656-1.5478516C9.065918,4.8017578,8.9116211,4.4658203,8.7573242,4.3300781
	c-0.1464844-0.1269531-0.375-0.1503906-0.5175781-0.2578125C8.0952148,3.9619141,8.019043,3.765625,7.8725586,3.5927734
	C7.7299805,3.4267578,7.5268555,3.2939453,7.4291992,3.1503906C7.2963867,2.9511719,7.2709961,2.6484375,6.987793,2.5605469
	c-0.0078125-0.0283203-0.03125-0.0429688-0.0742188-0.0361328C6.628418,2.8945313,6.3647461,3.2470703,6.065918,3.6660156
	c-0.234375,0.3300781-0.5625,0.6503906-0.7734375,1.0322266C5.1870117,4.8886719,5.1811523,5.1279297,5.0717773,5.3251953
	C4.972168,5.5039063,4.769043,5.6328125,4.6655273,5.8037109C4.6010742,5.9121094,4.5893555,6.0517578,4.519043,6.1728516
	C4.3823242,6.4033203,4.1791992,6.5957031,4.0385742,6.8359375c-0.25,0.4306641-0.4921875,0.7558594-0.4414063,1.3632813
	c0.0078125,0.1074219,0.0917969,0.2314453,0.109375,0.3691406c0.015625,0.1083984-0.0195313,0.2294922,0,0.3310547
	c0.0625,0.3017578,0.2929688,0.7285156,0.40625,0.9589844c0.0664063,0.1337891,0.1015625,0.2978516,0.1464844,0.3681641
	c0.2949219,0.4511719,0.8730469,0.7050781,1.4375,0.8105469c0.2773438,0.3320313,0.8632813,0.1455078,0.9960938-0.1835938
	C6.6713867,9.9892578,6.7358398,9.0400391,6.6557617,8.2363281C6.1889648,7.7685547,5.362793,7.6621094,4.9233398,7.1679688
	C5.1831055,6.953125,5.5561523,6.9238281,5.9194336,6.7988281C6.2416992,6.6875,6.612793,6.4853516,6.9506836,6.4677734
	c0.375-0.0195313,0.7265625,0.1699219,1.0683594,0.2949219c0.3261719,0.1181641,0.6875,0.2314453,0.8847656,0.4785156
	C8.3081055,7.5673828,7.6967773,7.8779297,7.2084961,8.3105469C7.3120117,8.9941406,7.0698242,9.8984375,7.2084961,10.484375z
	 M7.2084961,6.9833984C7.1323242,7.1171875,7.0952148,7.2880859,7.097168,7.4990234
	C7.4702148,7.4404297,7.8588867,7.3994141,7.9819336,7.09375C7.7475586,7.0351563,7.4897461,6.9980469,7.2084961,6.9833984z
	 M5.8823242,7.2412109C6.0366211,7.4921875,6.425293,7.5078125,6.6928711,7.6464844
	c0.1132813-0.1201172,0.0625-0.4033203,0.0742188-0.6259766C6.3706055,6.9931641,6.1557617,7.1474609,5.8823242,7.2412109z"/>
<path fill="#B2B2B2" fill-rule="evenodd" d="M13.3999023,7.2412109c0.2246094,0.2060547,0.2734375,0.5029297,0.0742188,0.7001953
	c-0.2070313,0.2050781-0.6660156,0.1240234-0.7363281-0.1103516C12.6303711,7.4833984,12.972168,7.1835938,13.3999023,7.2412109z"/>
<path fill="#B2B2B2" fill-rule="evenodd" d="M0.8686523,7.8681641c0.0566406,0.359375-0.21875,0.7431641-0.5527344,0.7001953
	c-0.3476563-0.0449219-0.4433594-0.6083984-0.109375-0.8105469C0.4526367,7.7685547,0.7749023,7.7041016,0.8686523,7.8681641z"/>
</svg>
