<?xml version="1.0" encoding="utf-8"?>
<!-- Generator: Adobe Illustrator 15.1.0, SVG Export Plug-In  -->
<!DOCTYPE svg [
	<!ENTITY ns_flows "http://ns.adobe.com/Flows/1.0/">
]>
<svg version="1.2" baseProfile="tiny"
	 xmlns="http://www.w3.org/2000/svg" xmlns:xlink="http://www.w3.org/1999/xlink" xmlns:a="http://ns.adobe.com/AdobeSVGViewerExtensions/3.0/"
	 x="0px" y="0px" width="11px" height="21px" viewBox="-0.5410156 -0.2841797 11 21" xml:space="preserve">
<defs>
</defs>
<path fill="#B2B2B2" fill-rule="evenodd" d="M4.9394531,0C5.4746094,0.4775391,5.8828125,1.4160156,6.265625,2.1376953
	C6.4101563,2.4101563,6.5859375,2.6484375,6.6347656,2.875c0.0996094,0.4599609,0.0625,1.0058594,0.0371094,1.4003906
	C6.6367188,4.8037109,6.5332031,5.5,6.3769531,5.9707031C6.3398438,6.0810547,6.2421875,6.1777344,6.1914063,6.3027344
	c-0.046875,0.1191406-0.0546875,0.2646484-0.109375,0.3681641C5.859375,7.0810547,5.4355469,7.3554688,5.3808594,7.8134766
	C6.2832031,7.6347656,7.25,7.5195313,7.703125,6.8925781C7.7148438,6.7324219,7.5,6.8017578,7.5195313,6.6337891
	c0.6152344-0.0849609,1.3867188-0.0126953,2.0625-0.0361328c-0.0605469,0.28125-0.3457031,0.3408203-0.625,0.4052734
	C8.6347656,7.2470703,8.515625,7.6933594,8.4394531,8.1816406C8.3554688,8.0585938,8.4257813,7.7792969,8.2558594,7.7402344
	c-0.140625,0.0683594-0.1113281,0.2001953-0.2207031,0.2939453C7.7265625,8.3017578,7.0898438,8.3056641,6.8554688,8.5878906
	C6.7167969,8.7548828,6.7011719,9.0029297,6.7089844,9.3984375C6.6503906,9.5107422,6.6757813,9.2382813,6.671875,9.1767578
	c-0.0351563-0.1865234-0.1035156-0.3388672-0.1484375-0.515625C6.09375,8.6113281,6.1191406,9.0185547,6.0820313,9.3613281
	C5.90625,9.2050781,5.9472656,8.8330078,5.7871094,8.6611328c-0.0859375,0-0.171875,0-0.2578125,0
	c0.1230469,0.2714844,0.4511719,0.5810547,0.515625,1.0683594c0.1113281,0.8466797-0.1621094,1.5605469-0.515625,1.9541016
	c0.5039063,0.2353516,1.2050781-0.0947266,1.6210938-0.2949219C7.21875,11.3349609,7.1542969,11.1474609,7.2246094,11.09375
	c0.3320313,0.0244141,0.7617188-0.0488281,1.03125,0.0371094c0.0292969,0.2988281-0.328125,0.2109375-0.4785156,0.3310547
	c-0.1953125,0.2958984-0.4628906,0.5205078-0.6640625,0.8105469c-0.078125,0.3876953,0.0058594,0.9394531-0.109375,1.2900391
	c-0.203125-0.4082031,0.0585938-1.3779297-0.5175781-1.2529297c-0.296875,0.0644531-0.1425781,0.3720703-0.2578125,0.6269531
	c-0.1445313-0.0888672-0.0273438-0.4394531-0.1464844-0.5527344c-0.1582031-0.0224609-0.2441406,0.0263672-0.3691406,0.0361328
	c0.2792969,0.5742188,0.40625,1.3291016,0.0371094,1.9541016c-0.1835938,0.3076172-0.5859375,0.4638672-0.6269531,0.8105469
	c0.5839844,0.2539063,1.1972656-0.1132813,1.4746094-0.4052734c0.2578125,0,0.515625,0,0.7734375,0
	c-0.1386719,0.3125-0.4121094,0.4042969-0.7363281,0.6259766c-0.3144531,0.2148438-0.5449219,0.4228516-1.1054688,0.4423828
	c0.2070313,0.2529297,0.4726563,0.7539063,0.3320313,1.3642578c-0.09375,0.3994141-0.4941406,0.6660156-0.5527344,0.9951172
	c0.0390625,0.2050781,0.1816406,0.3583984,0,0.515625c0.328125,0.6015625-0.4296875,1.2119141-0.2597656,1.9902344
	c-0.3222656-0.4111328-0.0625-1.2246094-0.3300781-1.6582031c-0.1210938-0.1953125-0.3164063-0.4804688-0.0371094-0.7001953
	c-0.1914063-0.4355469-0.6210938-0.6318359-0.8105469-1.0693359c0.0019531-0.5625,0.046875-1.0830078,0.2949219-1.4003906
	c-0.5078125-0.0439453-0.9179688-0.2705078-1.328125-0.4794922C2.5839844,15.2763672,2.1875,15.1259766,2.359375,14.7792969
	c0.2089844,0,0.4179688,0,0.6269531,0c0.1035156-0.0058594,0.0917969,0.1035156,0.1464844,0.1474609
	C3.3554688,14.9375,3.5664063,15.0966797,3.796875,15.1845703c0.1894531,0.0722656,0.4824219,0.234375,0.6640625,0
	c0.0097656-0.3632813-0.3867188-0.4873047-0.5546875-0.8105469c-0.3183594-0.6181641-0.0195313-1.4208984,0.2597656-1.9169922
	c-0.3515625-0.0175781-0.5117188,0.1533203-0.7011719,0.2949219c0.1152344,0.3447266-0.0449219,0.6445313-0.1464844,0.8847656
	c0.0917969,0.2294922,0.1230469,0.4082031,0.0351563,0.6630859c-0.3144531-0.4316406,0.09375-1.4443359-0.2949219-1.8056641
	c-0.2089844-0.1953125-0.4589844-0.4765625-0.7363281-0.6269531c-0.0917969,0.0302734-0.0507813,0.1943359-0.1113281,0.2587891
	C2.03125,12.0595703,2.2695313,11.5761719,1.953125,11.6464844c-0.1777344,0.0292969-0.1152344,0.3027344-0.1464844,0.4794922
	c-0.1484375-0.2324219-0.0351563-0.7265625-0.2578125-0.8847656c0.1132813-0.3535156,0.7519531-0.1816406,1.1796875-0.2216797
	c0.2128906,0.5859375,0.9023438,0.890625,1.6953125,0.7744141c-0.109375-0.3212891-0.5390625-0.5634766-0.7011719-0.9951172
	c-0.1367188-0.3671875-0.125-0.8837891-0.0371094-1.2158203C3.78125,9.2207031,4.109375,8.9960938,4.2011719,8.6982422
	C3.8496094,8.5068359,3.8085938,8.9423828,3.4277344,8.8457031c-0.2011719,0.3984375-0.0742188,1.3271484-0.109375,1.9902344
	c-0.0097656,0.1464844,0.0625,0.3583984-0.1113281,0.4052734c-0.0625-0.8095703-0.0898438-1.6542969-0.1484375-2.4697266
	C2.9589844,8.6376953,2.7578125,8.6064453,2.6171875,8.5136719c-0.125-0.0019531-0.0566406,0.1894531-0.1835938,0.1845703
	c0.0136719-0.1738281-0.0039063-0.3164063-0.1855469-0.2949219C2.1464844,8.5107422,2.2617188,8.8339844,2.1015625,8.8818359
	C2.1992188,8.2441406,1.7558594,8.1464844,1.4375,7.9238281C1.3964844,8.1240234,1.2402344,8.34375,1.1796875,8.5878906
	C1.1425781,8.7392578,1.2636719,8.984375,1.0703125,9.0664063c-0.0722656-0.5419922,0.0996094-0.9863281,0-1.4003906
	c-0.09375-0.3789063-0.5488281-0.5-0.6640625-0.8105469C0.2421875,6.7978516,0.0351563,6.7832031,0,6.5976563
	c0.1074219-0.1386719,0.3359375-0.0712891,0.515625-0.0742188c0.4882813-0.0068359,1.1582031-0.0244141,1.6230469,0.0371094
	c0.109375,0.2285156-0.3417969,0.1435547-0.3691406,0.3320313C1.7441406,7.078125,2.4960938,7.3955078,2.6914063,7.4814453
	C3.3105469,7.7578125,3.9980469,7.9638672,4.71875,7.7402344c-0.0625-0.171875-0.2675781-0.1845703-0.40625-0.2949219
	C4.0019531,7.1982422,3.4433594,6.4726563,3.28125,6.0449219C3.2050781,5.8457031,3.2050781,5.5615234,3.1328125,5.3076172
	c-0.0625-0.2197266-0.1914063-0.4267578-0.2207031-0.6269531c-0.0605469-0.421875,0.03125-0.9921875,0.0742188-1.4003906
	c0.0195313-0.1962891-0.0039063-0.4335938,0.0371094-0.5898438c0.1074219-0.4287109,0.5898438-0.9111328,0.9199219-1.3261719
	C4.3359375,0.8720703,4.6933594,0.4189453,4.9394531,0z M4.2011719,2.5800781
	C3.9824219,3.0517578,3.8066406,3.6923828,3.8339844,4.3125c0.0234375,0.5224609,0.2167969,1.0332031,0.4042969,1.4736328
	c0.1914063,0.4501953,0.3691406,0.9384766,0.6640625,1.2539063C5.1054688,6.2978516,5.640625,5.4472656,5.75,4.4599609
	c0.03125-0.2822266-0.0136719-0.6269531-0.0371094-0.9580078c-0.0214844-0.3085938-0.0117188-0.65625-0.0742188-0.921875
	C5.546875,2.1845703,5.1972656,1.7119141,4.9394531,1.4003906c-0.0058594-0.0058594-0.03125,0.0048828-0.0371094,0
	C4.8398438,1.8828125,4.4199219,2.1142578,4.2011719,2.5800781z M4.8652344,8.7353516
	C4.71875,9.1123047,4.40625,9.7910156,4.4238281,10.2089844c0.0195313,0.4667969,0.2792969,0.8828125,0.4785156,1.2158203
	c0.5839844-0.6914063,0.484375-2.0429688,0.0371094-2.8007813C4.875,8.6328125,4.8867188,8.6806641,4.8652344,8.7353516z
	 M4.7910156,14.6689453c0.7207031-0.3935547,0.6074219-1.7666016,0.2226563-2.4326172
	c-0.0488281-0.0019531-0.0527344-0.0478516-0.1113281-0.0371094C4.4277344,12.8378906,4.1640625,14.0117188,4.7910156,14.6689453z
	 M5.1972656,17.3955078c0.0292969-0.0947266-0.0136719-0.2236328,0-0.3310547
	c0.0097656-0.0800781,0.0644531-0.1494141,0.0742188-0.2216797c0.0585938-0.4306641-0.1972656-1.0224609-0.4433594-1.1054688
	c-0.4882813,0.4511719-0.3925781,1.7138672,0.1113281,2.0634766C4.9785156,17.6640625,5.1445313,17.5703125,5.1972656,17.3955078z"
	/>
</svg>
