<?xml version="1.0" encoding="utf-8"?>
<!-- Generator: Adobe Illustrator 15.1.0, SVG Export Plug-In  -->
<!DOCTYPE svg [
	<!ENTITY ns_flows "http://ns.adobe.com/Flows/1.0/">
]>
<svg version="1.2" baseProfile="tiny"
	 xmlns="http://www.w3.org/2000/svg" xmlns:xlink="http://www.w3.org/1999/xlink" xmlns:a="http://ns.adobe.com/AdobeSVGViewerExtensions/3.0/"
	 x="0px" y="0px" width="14px" height="20px" viewBox="-0.9731445 -0.9042969 14 20" xml:space="preserve">
<defs>
</defs>
<path fill-rule="evenodd" d="M0.3208008,0.0019531c0.3808594,0.2421875,0.1269531,0.5898438,0.0742188,0.9580078
	C0.3676758,1.1425781,0.4282227,1.421875,0.4321289,1.6972656C0.434082,1.8896484,0.3833008,2.0859375,0.3950195,2.25
	c0.0175781,0.25,0.1738281,0.5,0.2207031,0.7734375C0.6977539,3.4990234,0.652832,4.0107422,0.6899414,4.4980469
	c0.0253906,0.3330078,0.140625,0.6835938,0.1464844,0.9951172C0.8442383,5.8125,0.7602539,6.0771484,0.7993164,6.3037109
	c0.1230469,0.6796875,0.9863281,1.2685547,1.4746094,1.6220703C2.574707,7.96875,2.8500977,8.0371094,3.1586914,8.0732422
	C2.9985352,7.828125,2.6743164,7.7460938,2.5317383,7.4833984C2.4633789,7.109375,2.2485352,6.7626953,2.199707,6.3037109
	C2.1762695,6.0712891,2.2368164,5.8203125,2.2368164,5.5664063C2.2387695,5.28125,2.1508789,4.9892578,2.1274414,4.6826172
	c-0.015625-0.2070313,0.0136719-0.3955078,0-0.6269531C2.0727539,3.1621094,1.8051758,2.2158203,1.8696289,1.6230469
	c0.0273438-0.2539063,0.0722656-0.7021484,0.4414063-0.7001953c0.2832031,0.1494141,0.0605469,0.5947266,0.0371094,0.921875
	C2.3051758,2.4414063,2.3696289,3.3115234,2.4223633,3.8710938c0.1289063,1.3994141-0.0390625,2.671875,0.5898438,3.5019531
	c0.1210938,0.1601563,0.6386719,0.6376953,0.8828125,0.7001953c0.3691406,0.09375,1.0546875-0.1523438,1.3652344,0.1474609
	c0.0078125-0.3632813-0.1992188-0.5351563-0.3691406-0.7001953c-0.1621094-0.1582031-0.40625-0.2734375-0.5527344-0.5166016
	c-0.4941406-0.8242188,0-2.1953125-0.1835938-3.2431641c-0.0351563-0.1992188-0.1953125-0.3105469-0.1855469-0.515625
	c0.1699219-0.1035156,0.5019531-0.1035156,0.6269531,0.0371094c0.0078125,0.1318359-0.0585938,0.2841797-0.0742188,0.4423828
	C4.434082,4.6992188,4.4477539,6.2089844,4.7797852,6.8564453c0.1171875,0.2285156,0.296875,0.4384766,0.515625,0.7001953
	C5.4750977,7.7695313,5.7133789,8.1289063,5.9223633,8.109375c0.4824219-0.0439453,0.1972656-1.2861328,0.1855469-1.8417969
	C6.0981445,5.8681641,6.2426758,5.4570313,6.2543945,5.1982422C6.262207,5.0429688,6.1508789,4.6552734,6.3286133,4.4980469
	c0.1640625,0.0146484,0.3964844,0.1347656,0.4414063,0.3320313c0.046875,0.203125-0.1152344,0.4394531-0.1464844,0.7001953
	c-0.0664063,0.5380859-0.0585938,1.3486328,0,1.8427734C6.6508789,7.609375,6.7211914,7.8408203,6.8813477,7.9257813
	c0.6992188-0.1533203,0.8164063-0.7441406,0.9570313-1.5478516c0.0664063-0.3662109,0.109375-0.6162109,0.1484375-1.0693359
	c0.0195313-0.2275391,0.1289063-0.4589844,0.1464844-0.6630859c0.0117188-0.1103516-0.0410156-0.2265625-0.0351563-0.3320313
	c0.0097656-0.2402344,0.1425781-0.6123047,0.1835938-0.9208984C8.5415039,3.3662109,8.730957,3.4101563,8.8344727,3.5400391
	c0.0332031,0.2148438-0.2460938,0.3300781-0.2949219,0.515625c-0.1230469,0.46875,0.0273438,1.2050781,0,1.8056641
	c-0.0371094,0.8642578-0.234375,1.5009766-0.4785156,2.1015625C8.8637695,8.3271484,9.590332,7.6494141,9.902832,7.1884766
	c0.2558594-1.1005859,0.3339844-2.5751953,0.2207031-3.9433594c-0.0429688-0.5361328-0.1738281-1.0810547-0.0351563-1.5478516
	c0.3320313,0.0712891,0.2988281,0.5107422,0.4042969,0.8105469c-0.0195313,0.1679688,0.2480469,0.0478516,0.2578125,0.1845703
	c0.046875,0.2802734-0.2480469,0.5126953-0.2949219,0.7734375c-0.1640625,0.9140625,0.1191406,1.9677734,0.0371094,2.875
	c-0.0371094,0.4257813-0.1777344,0.859375-0.3320313,1.1796875c-0.1132813,0.2333984-0.28125,0.2763672-0.3320313,0.5888672
	c0.2480469,0.2382813,0.7597656,0.0029297,0.9960938-0.1464844c0.1992188-0.1269531,0.2792969-0.3466797,0.4414063-0.5166016
	C11.4243164,7.28125,11.621582,7.2441406,11.7094727,7.078125c0.1503906-0.7119141,0.1875-1.8974609,0.1464844-2.875
	c-0.0117188-0.3017578-0.0683594-0.5947266-0.0371094-0.8847656c0.0175781-0.1552734,0.0917969-0.2841797,0.1113281-0.4423828
	c0.0253906-0.2148438-0.0253906-0.4511719,0-0.6630859c0.0195313-0.1757813,0.1328125-0.3457031,0.1484375-0.515625
	c0.0292969-0.3427734-0.0253906-0.7050781-0.1113281-0.9951172c0.1445313-0.1630859,0.2285156-0.3847656,0.515625-0.4052734
	c0.046875,0.1005859,0.1484375,0.1464844,0.2207031,0.2207031c-0.0332031,0.2578125-0.2207031,0.5625-0.2578125,0.8105469
	c-0.0429688,0.2929688,0.0332031,0.6132813,0,0.921875c-0.015625,0.1484375-0.0917969,0.2958984-0.109375,0.4423828
	c-0.0195313,0.1523438,0.015625,0.3144531,0,0.4785156c-0.0332031,0.3056641-0.15625,0.6054688-0.1484375,0.8847656
	c0.0039063,0.1298828,0.0605469,0.2470703,0.0742188,0.3691406c0.0683594,0.6240234,0.0703125,1.6533203,0,2.2841797
	C12.1665039,7.5625,11.5844727,8.3857422,10.7875977,8.515625c-0.4804688,0.078125-0.9648438-0.03125-1.4003906,0
	C8.5883789,8.5722656,7.9125977,8.9091797,7.0649414,8.9208984c-0.4082031,0.3193359-0.3320313,1.3232422-0.2949219,2.1005859
	c0.0585938,1.1650391,0.0585938,2.6572266,0,3.9804688c-0.0292969,0.6689453-0.2226563,1.6132813-0.1464844,2.3583984
	c0.0175781,0.1816406,0.0976563,0.3447266,0.109375,0.515625c0.0332031,0.4433594-0.140625,0.7568359-0.109375,1.1425781
	c-0.2285156-0.1542969-0.0664063-0.5263672-0.1113281-0.8476563c-0.0527344-0.3945313-0.2578125-0.7705078-0.2949219-1.1787109
	c-0.0371094-0.4238281,0.046875-0.8056641,0.0742188-1.1796875c0.0234375-0.3115234,0-0.6611328,0.0371094-0.9951172
	c0.0371094-0.3457031,0.1054688-0.6582031,0.0742188-0.9580078c-0.03125-0.2861328-0.1875-0.5625-0.1855469-0.8476563
	c0.0019531-0.1503906,0.0996094-0.3173828,0.1113281-0.4794922c0.0234375-0.3369141-0.0566406-0.8046875-0.0371094-1.2529297
	c0.0410156-0.9716797,0.0859375-1.8496094-0.3320313-2.4326172C4.6665039,8.6162109,2.902832,8.3701172,1.7211914,8.2207031
	C1.6625977,8.2128906,1.246582,7.9892578,1.168457,7.9257813C0.9711914,7.7666016,0.5961914,7.2626953,0.5043945,6.9677734
	C0.3110352,6.3349609,0.449707,5.6337891,0.3950195,4.9404297C0.371582,4.6435547,0.2641602,4.3476563,0.246582,4.0556641
	c-0.0195313-0.3232422,0.09375-0.6445313,0.0742188-0.9580078S0.0844727,2.4707031,0.0258789,2.1025391
	C-0.0756836,1.4511719,0.1547852,0.7939453,0.137207,0.1123047C0.2231445,0.1005859,0.2055664-0.015625,0.3208008,0.0019531z"/>
</svg>
