<?xml version="1.0" encoding="utf-8"?>
<!-- Generator: Adobe Illustrator 15.1.0, SVG Export Plug-In  -->
<!DOCTYPE svg [
	<!ENTITY ns_flows "http://ns.adobe.com/Flows/1.0/">
]>
<svg version="1.2" baseProfile="tiny"
	 xmlns="http://www.w3.org/2000/svg" xmlns:xlink="http://www.w3.org/1999/xlink" xmlns:a="http://ns.adobe.com/AdobeSVGViewerExtensions/3.0/"
	 x="0px" y="0px" width="14px" height="20px" viewBox="-0.7324219 -0.605957 14 20" xml:space="preserve">
<defs>
</defs>
<path fill="#B2B2B2" fill-rule="evenodd" d="M12.6220703,4.7592773c0.1347656,0.0869141,0.3046875,0.1367188,0.4785156,0.1845703
	c-0.3261719,0.6035156-0.7617188,1.1191406-1.1796875,1.6582031c-0.203125,0.2626953-0.4414063,0.5146484-0.6621094,0.7744141
	c-0.21875,0.2568359-0.3984375,0.5449219-0.6269531,0.7734375c-0.2714844,0.2705078-0.6523438,0.4296875-0.8476563,0.7744141
	c0.1484375,0.6347656,0.3925781,1.1962891,0.6621094,1.8427734c0.6054688,1.4414063,0.8925781,3.6679688,0.8847656,5.7861328
	c-0.0019531,0.9882813-0.1933594,1.8378906-0.4414063,2.6533203c-0.3632813-0.5449219-0.3515625-1.4599609-0.3320313-2.3955078
	c0.0117188-0.5302734,0.0371094-1.0732422-0.1113281-1.4746094c-0.15625-0.4267578-0.828125-1.0595703-1.1777344-1.3632813
	c-0.4296875-0.3701172-1.0664063-0.7607422-1.5488281-1.1796875c-0.3925781-0.3408203-1.0253906-1.1533203-1.546875-1.1416016
	c-0.2929688,0.0058594-0.7265625,0.4111328-0.9960938,0.6259766c-0.5839844,0.4658203-0.8867188,0.7871094-1.4746094,1.1796875
	c-0.4160156,0.2783203-0.7910156,0.5273438-1.1777344,0.8847656c-0.4296875,0.3935547-0.5957031,0.6748047-0.8125,1.3261719
	c-0.2519531,0.765625-0.4902344,1.6689453-0.625,2.5800781c-0.3613281-1.8251953,0.1171875-3.4794922,0.4414063-4.9755859
	c0.3261719-1.5117188,0.8789063-2.9072266,1.3632813-4.2382813C2.4267578,8.2299805,1.7412109,7.5708008,1.2333984,6.7866211
	C0.9853516,6.4018555,0.7412109,5.987793,0.4970703,5.5708008c-0.234375-0.3984375-0.5761719-0.8476563-0.4804688-1.4013672
	c0.8242188-0.0097656,1.5,0.3066406,2.2128906,0.5166016c0.65625,0.1933594,1.3105469,0.4296875,2.0625,0.6259766
	c0.6894531-1.6816406,1.2480469-3.4951172,1.8808594-5.2333984c0.4355469-0.3515625,0.3574219,0.5634766,0.4414063,0.9951172
	c0.0703125,0.3652344,0.2421875,0.8066406,0.3691406,1.2529297c0.2402344,0.8505859,0.4628906,1.5478516,0.8105469,2.3964844
	C8.0615234,5.3754883,8.2177734,5.753418,8.9736328,5.5708008c0.4238281-0.1035156,0.9160156-0.3339844,1.4375-0.4794922
	C11.1357422,4.8881836,11.7216797,4.7543945,12.6220703,4.7592773z M5.5087891,6.0493164
	C5.6611328,6.159668,5.8857422,6.4819336,6.1357422,6.4916992c0.0742188,0.0029297,0.2792969-0.1240234,0.4414063-0.1845703
	C6.9794922,6.1586914,7.5185547,5.996582,7.5361328,5.6069336C7.5400391,5.5151367,7.4228516,5.3061523,7.3505859,5.128418
	C6.8955078,3.9916992,6.6591797,2.4936523,6.2451172,1.4790039C6.2080078,1.4799805,6.2021484,1.449707,6.1728516,1.4428711
	C5.9775391,1.6333008,5.8525391,2.1381836,5.7294922,2.5483398C5.4462891,3.4995117,5.1376953,4.675293,4.9560547,5.5336914
	C5.0244141,5.7670898,5.2431641,5.8588867,5.5087891,6.0493164z M0.6435547,4.6860352c0,0.0244141,0,0.0488281,0,0.0732422
	c0.0273438,0.1923828,0.1367188,0.3037109,0.2207031,0.4794922c0.078125,0.1621094,0.1132813,0.3466797,0.1855469,0.4794922
	c0.1875,0.3476563,0.609375,0.8212891,0.8476563,1.1416016c0.2382813,0.3232422,0.46875,0.4794922,0.6992188,0.7373047
	c0.2011719,0.2255859,0.2949219,0.5048828,0.5527344,0.6269531c0.2207031-0.8251953,0.7480469-1.3408203,0.9589844-2.1748047
	C3.0810547,5.4926758,1.7958984,4.9956055,0.6435547,4.6860352z M11.5888672,5.3120117
	c-1.0625,0.0976563-2.0410156,0.6484375-3.0585938,0.8476563c0.2304688,0.5810547,0.5097656,1.1386719,0.7753906,1.6591797
	c0.0917969,0.1806641,0.1542969,0.4023438,0.3300781,0.515625c0.4355469-0.3974609,0.6992188-0.9404297,1.1054688-1.3632813
	c0.3339844-0.3466797,0.6601563-0.6298828,0.9589844-0.9951172c0.1445313-0.1767578,0.3261719-0.3867188,0.3691406-0.6269531
	C11.9130859,5.2338867,11.7470703,5.2983398,11.5888672,5.3120117z M4.6240234,6.159668
	c-0.296875,0.5390625-0.6386719,1.0322266-0.8105469,1.6953125c0.7050781-0.3144531,1.0839844-0.9541016,1.9160156-1.1425781
	C5.3564453,6.5483398,5.0947266,6.1088867,4.6240234,6.159668z M8.3466797,7.1186523
	C8.1787109,6.7885742,8.0712891,6.3950195,7.7197266,6.2338867C7.3232422,6.4018555,7.0244141,6.6674805,6.5771484,6.7866211
	C6.8779297,7.1040039,7.3154297,7.2358398,7.6826172,7.449707c0.3808594,0.2216797,0.671875,0.5751953,1.1054688,0.7001953
	C8.7177734,7.7739258,8.5087891,7.4389648,8.3466797,7.1186523z M6.0615234,7.3022461
	C5.4287109,7.6176758,5.3759766,9.6479492,6.3935547,9.4399414C6.5693359,8.909668,6.7900391,8.0668945,6.6142578,7.5239258
	C6.4404297,7.4399414,6.2861328,7.3364258,6.0615234,7.3022461z M3.6650391,8.8139648
	c0.5625,0.2988281,1.2753906,0.4453125,1.9550781,0.6259766c-0.1425781-0.3476563-0.4140625-0.6621094-0.40625-1.1054688
	c0.0039063-0.2773438,0.1738281-0.5058594,0.1464844-0.8105469C4.6279297,7.784668,4.1650391,8.3178711,3.6650391,8.8139648z
	 M7.1669922,8.9614258C7.0146484,9.1401367,6.8642578,9.3208008,6.7626953,9.550293
	C7.2021484,9.4946289,7.6552734,9.5405273,7.9775391,9.402832c0.1347656-0.0566406,0.2929688-0.2324219,0.40625-0.3310547
	C8.5283203,8.9458008,8.7080078,8.831543,8.6787109,8.6293945c-0.5820313-0.1552734-0.796875-0.6777344-1.4375-0.7744141
	C7.2529297,8.1518555,7.2080078,8.605957,7.1669922,8.9614258z M2.9658203,13.1625977
	c0.1269531-0.1123047,0.3046875-0.1777344,0.4414063-0.2949219c0.2792969-0.2373047,0.5097656-0.5068359,0.7753906-0.7373047
	c0.1464844-0.1279297,0.28125-0.2880859,0.4042969-0.3681641c0.2480469-0.1601563,0.8808594-0.2597656,0.921875-0.5527344
	c0.046875-0.3427734-0.6074219-0.7011719-0.8476563-0.7744141c-0.0898438-0.171875-0.2753906-0.2373047-0.40625-0.3681641
	c-0.28125-0.2841797-0.4492188-0.7216797-0.8828125-0.8476563c-0.0253906,0-0.0507813,0-0.0742188,0
	c-0.4921875,1.6201172-1.1191406,3.1074219-1.328125,5.0117188C2.3369141,14.0161133,2.5634766,13.5161133,2.9658203,13.1625977z
	 M10.4833984,12.5727539c-0.2304688-0.7998047-0.4746094-1.484375-0.7363281-2.1748047
	c-0.1328125-0.3515625-0.234375-0.7304688-0.4414063-1.03125C8.7978516,9.387207,8.5654297,9.840332,8.2724609,10.0668945
	c-0.0820313,0.0634766-0.2148438,0.0830078-0.2949219,0.1474609c-0.1816406,0.1435547-0.3398438,0.3544922-0.515625,0.515625
	c-0.1972656,0.1826172-0.4667969,0.3525391-0.4785156,0.5898438c1.015625,0.8232422,2.2460938,1.4150391,2.984375,2.5058594
	c0.2617188,0.3876953,0.3886719,0.8310547,0.8105469,1.1054688C10.8740234,13.9858398,10.6845703,13.2700195,10.4833984,12.5727539z
	 M4.8447266,9.8823242c0,0.0371094,0,0.0742188,0,0.1103516c0.1328125,0.1865234,0.359375,0.3037109,0.5898438,0.4794922
	c0.2070313,0.1582031,0.3925781,0.4042969,0.6640625,0.4052734c0.1816406,0.0009766,0.5742188-0.1943359,0.7734375-0.3320313
	c0.1582031-0.1083984,0.34375-0.3173828,0.40625-0.4785156C6.4248047,10.0708008,5.6181641,9.8344727,4.8447266,9.8823242z"/>
</svg>
