<?xml version="1.0" encoding="utf-8"?>
<!-- Generator: Adobe Illustrator 15.1.0, SVG Export Plug-In  -->
<!DOCTYPE svg [
	<!ENTITY ns_flows "http://ns.adobe.com/Flows/1.0/">
]>
<svg version="1.2" baseProfile="tiny"
	 xmlns="http://www.w3.org/2000/svg" xmlns:xlink="http://www.w3.org/1999/xlink" xmlns:a="http://ns.adobe.com/AdobeSVGViewerExtensions/3.0/"
	 x="0px" y="0px" width="18px" height="19px" viewBox="-0.1733398 -0.4160156 18 19" xml:space="preserve">
<defs>
</defs>
<path fill="#B2B2B2" fill-rule="evenodd" d="M6.597168,0c0.2568359,0.4677734,0.7246094,0.7255859,0.6630859,1.5117188
	C7.0683594,1.8066406,6.7207031,2.0732422,6.3022461,1.8427734C6.1782227,1.6347656,6.1210938,1.3603516,6.0439453,1.1054688
	C6.2104492,0.7197266,6.4140625,0.3701172,6.597168,0z"/>
<path fill="#B2B2B2" fill-rule="evenodd" d="M10.1352539,1.5117188c-0.0898438-0.59375,0.1464844-0.8603516,0.4785156-1.0322266
	c0.6464844-0.0634766,1.0722656,0.5458984,0.8105469,1.2900391c-0.0888672,0.2539063-0.4453125,0.5234375-0.5888672,0.515625
	C10.5415039,2.2685547,10.3696289,1.6552734,10.1352539,1.5117188z"/>
<path fill="#B2B2B2" fill-rule="evenodd" d="M0,1.9902344c0.3510742,0.0888672,0.8891602,0.1523438,1.2163086,0.2949219
	c0.3496094,0.1533203,0.753418,0.5341797,0.9951172,0.8476563c0.1201172,0.15625,0.1645508,0.3642578,0.2944336,0.515625
	C2.8994141,4.109375,3.5205078,4.4150391,4.0908203,4.6435547c0.5732422,0.2304688,1.1982422,0.5175781,1.9902344,0.5527344
	c0.6494141-0.5507813-0.144043-1.8652344,0.2578125-2.6894531c0.4257813-0.0332031,0.5791016,0.2070313,0.8476563,0.3310547
	c0.1826172,0.6289063,0.0864258,1.5351563,0.1108398,2.3222656C7.3803711,5.3408203,7.625,5.3984375,7.8500977,5.4912109
	C8.0429688,5.5712891,8.2714844,5.7148438,8.4765625,5.75c0.3193359,0.0537109,0.6801758-0.0410156,0.9946289-0.0742188
	c0.3359375-0.0351563,0.6455078-0.0253906,0.8476563-0.2207031c0.1074219-0.7041016,0.1269531-1.4951172,0.1484375-2.2851563
	c0.2050781-0.0410156,0.40625-0.0849609,0.6621094-0.0742188c0.2714844,0.5410156,0.1074219,1.5146484,0.1855469,2.2480469
	c1.0351563-0.0009766,1.9677734-0.3134766,2.6523438-0.8105469c0.2734375-0.1972656,0.5292969-0.5292969,0.8115234-0.8105469
	c0.1298828-0.1298828,0.2353516-0.2861328,0.3681641-0.4423828c0.2773438-0.3251953,0.4824219-0.6142578,0.6269531-1.1054688
	c0.4726563-0.0429688,0.8847656-0.1464844,1.3632813-0.1845703c-0.4023438,1.6357422-1.4257813,2.8027344-2.7636719,3.6123047
	c-0.9433594,0.5703125-1.8261719,1.0869141-3.0957031,1.3261719c-0.0078125,0.2138672,0.1230469,0.4423828,0.1464844,0.6640625
	c0.0625,0.578125-0.125,1.2822266-0.109375,2.0263672c0.0253906,1.3242188,0.0732422,2.765625,0.0732422,4.2021484
	c0,0.7158203,0.0117188,1.4316406-0.0732422,2.0263672c-0.046875,0.3222656-0.1894531,0.625-0.2587891,0.921875
	c-0.0390625,0.1669922-0.0751953,0.3261719-0.1103516,0.4785156c-0.0351563,0.1552734-0.0263672,0.3349609-0.1474609,0.4423828
	c-0.4179688-2.4052734-0.2841797-6.0908203-0.4052734-8.8447266c-0.0224609-0.5126953,0.1328125-1.5800781-0.3320313-1.6220703
	c-0.3847656-0.0341797-0.4775391,0.7685547-0.515625,1.2900391c-0.1435547,1.9697266,0.1914063,3.3671875,0.0371094,5.3076172
	c-0.0410156,0.515625-0.0273438,1.0361328-0.1484375,1.4365234c-0.0556641,0.1884766-0.2226563,0.3632813-0.2578125,0.5527344
	c-0.0488281,0.2675781,0.0175781,0.5585938,0,0.8115234c-0.0292969,0.4511719-0.109375,0.8681641-0.1835938,1.2900391
	c-0.0214844,0.1162109,0.0166016,0.2998047-0.1113281,0.3681641c-0.0600586-1.3183594-0.2402344-2.5888672-0.5522461-3.7587891
	c-0.105957-0.3974609-0.2099609-0.8525391-0.184082-1.2539063c0.0175781-0.2753906,0.175293-0.5625,0.2211914-0.8476563
	c0.0356445-0.2236328,0.0004883-0.5078125,0.0366211-0.7734375c0.105957-0.78125,0.152832-1.9716797,0.0737305-2.9853516
	C8.421875,7.9638672,8.3930664,7.0117188,7.7026367,6.8554688C7.5073242,7.0517578,7.5917969,7.4589844,7.5917969,7.8134766
	c0,1.0488281-0.0737305,2.0898438-0.0737305,3.1328125c0,0.6533203-0.0605469,1.3378906-0.1469727,1.9902344
	c-0.0927734,0.6962891-0.0668945,1.3564453-0.1108398,2.0263672c-0.046875,0.7177734-0.0224609,1.5048828-0.331543,1.9902344
	c-0.1210938-0.1181641-0.1845703-0.3632813-0.2211914-0.5888672c-0.0366211-0.2246094-0.0629883-0.4931641-0.0737305-0.7373047
	c-0.012207-0.2753906,0.0722656-0.5488281,0.0737305-0.8115234C6.7089844,14.5371094,6.625,14.25,6.6337891,13.9677734
	c0.0058594-0.1982422,0.0703125-0.3916016,0.0737305-0.5888672c0.0078125-0.4443359-0.0908203-0.9335938-0.1103516-1.4003906
	c-0.0415039-0.9775391-0.0302734-1.9345703-0.0737305-2.875C6.4814453,8.2011719,6.581543,7.390625,6.3388672,6.7080078
	C5.824707,6.3339844,5.144043,6.2275391,4.5698242,5.9335938C3.7158203,5.4970703,2.9272461,5.0908203,2.1743164,4.5703125
	C1.6875,4.2333984,1.230957,3.9814453,0.8476563,3.5009766C0.7436523,3.3720703,0.6645508,3.1767578,0.5527344,3.0224609
	c-0.2172852-0.2988281-0.4125977-0.4990234-0.5161133-0.921875C-0.0063477,2.0947266,0.0058594,2.0341797,0,1.9902344z"/>
<path fill="#B2B2B2" fill-rule="evenodd" d="M8.8081055,5.4550781C8.4506836,5.34375,8.5771484,4.953125,8.4765625,4.5703125
	C8.3891602,4.2373047,8.0532227,3.9707031,7.9975586,3.7226563C7.9335938,3.4375,7.9916992,3.0234375,8.0712891,2.8378906
	c0.0424805-0.0996094,0.2089844-0.2060547,0.331543-0.3681641c0.1328125-0.1757813,0.1669922-0.3876953,0.331543-0.4052734
	c0.5161133-0.0722656,0.5571289,0.6455078,0.8110352,0.9580078c0.0214844,0.7958984-0.0869141,1.4609375-0.5898438,1.7324219
	C8.8989258,4.9804688,8.8657227,5.2294922,8.8081055,5.4550781z"/>
</svg>
