<?xml version="1.0" encoding="utf-8"?>
<!-- Generator: Adobe Illustrator 15.1.0, SVG Export Plug-In  -->
<!DOCTYPE svg [
	<!ENTITY ns_flows "http://ns.adobe.com/Flows/1.0/">
]>
<svg version="1.2" baseProfile="tiny"
	 xmlns="http://www.w3.org/2000/svg" xmlns:xlink="http://www.w3.org/1999/xlink" xmlns:a="http://ns.adobe.com/AdobeSVGViewerExtensions/3.0/"
	 x="0px" y="0px" width="11px" height="18px" viewBox="-0.8554688 -0.6743164 11 18" xml:space="preserve">
<defs>
</defs>
<path fill="#B2B2B2" fill-rule="evenodd" d="M3.0249023,0.1586914C2.8144531,0.4262695,2.597168,0.7084961,2.3613281,1.0063477
	c-0.2084961,0.2636719-0.4311523,0.625-0.7001953,0.8105469C1.440918,1.9682617,1.1103516,2.050293,0.8500977,2.1850586
	c-0.2436523,0.1269531-0.503418,0.4003906-0.8105469,0.2949219c-0.112793-0.2226563,0.0419922-0.4648438,0.1474609-0.5898438
	C0.1723633,1.2250977,0.4902344,0.8920898,0.5922852,0.3422852C0.8540039,0.371582,1.003418,0.2866211,1.2558594,0.3061523
	C1.5522461-0.0317383,2.5800781-0.1030273,3.0249023,0.1586914z"/>
<path fill="#B2B2B2" fill-rule="evenodd" d="M8.8847656,0.3061523c0.2490234,0.2412109,0.609375,0.6826172,0.7363281,1.1425781
	C9.65625,1.5717773,9.6328125,1.7114258,9.6582031,1.8540039c0.0634766,0.3398438,0.2617188,0.6298828,0.2216797,0.9580078
	c-0.03125,0.25-0.2539063,0.5175781-0.4423828,0.7373047C8.9394531,4.128418,8.71875,4.3413086,7.9257813,4.6918945
	C7.6171875,4.8286133,7.0625,5.043457,7.0419922,5.2807617C7.0214844,5.512207,7.6064453,6.0131836,7.7050781,6.2026367
	c0.1660156,0.3173828,0.2773438,0.9287109,0.3691406,1.4375C8.140625,8.0073242,8.25,8.6362305,8.1474609,9.1137695
	C8.1171875,9.2573242,8.0253906,9.4018555,7.9628906,9.5561523C7.9023438,9.7084961,7.875,9.8901367,7.8164063,9.9985352
	c-0.1240234,0.2246094-0.3496094,0.3632813-0.4433594,0.5898438c-0.0566406,0.1396484-0.046875,0.2949219-0.109375,0.4423828
	c-0.0478516,0.109375-0.1171875,0.2177734-0.1855469,0.3320313c-0.0605469,0.1015625-0.1181641,0.2333984-0.1835938,0.3310547
	C6.75,11.9086914,6.4863281,12.0698242,6.3046875,12.3208008c-0.1708984,0.2353516-0.2460938,0.5576172-0.4052734,0.8105469
	c-0.0830078,0.1308594-0.2216797,0.2060547-0.2949219,0.3320313c-0.0537109,0.0917969-0.3212891,0.6289063-0.3310547,0.7363281
	c-0.0195313,0.203125,0.1425781,0.6542969,0.2578125,0.8847656c0.1396484,0.28125,0.4726563,0.6943359,0.7363281,0.7744141
	c0.2587891,0.078125,0.6298828-0.0019531,0.8105469-0.1474609c0.1914063-0.1533203,0.2763672-0.5087891,0.3320313-0.8847656
	c0.0566406-0.3798828,0.0585938-0.7392578-0.2578125-0.9951172c-0.1914063-0.1210938-0.3925781,0.1328125-0.5898438,0
	c-0.0957031-0.4443359,0.3808594-1.2119141,0.7744141-1.2158203c0.2919922-0.0039063,0.5927734,0.4677734,0.7744141,0.7001953
	c0.2617188,0.3339844,0.4609375,0.6132813,0.6259766,0.8476563c-0.5185547,0.6113281-0.7314453,1.5292969-1.0693359,2.3212891
	c0.0527344,0.3232422-0.078125,0.4628906-0.2207031,0.5898438c-0.7382813-0.1904297-1.5058594-0.3515625-2.3955078-0.2949219
	c-0.1694336-0.4072266-0.28125-0.9179688-0.3686523-1.4736328c-0.0771484-0.4931641-0.2446289-1.1806641-0.1103516-1.7324219
	c0.0546875-0.2265625,0.328125-0.375,0.4790039-0.6269531c0.0849609-0.1416016,0.1132813-0.3505859,0.1845703-0.4785156
	c0.0576172-0.1044922,0.1757813-0.2099609,0.2578125-0.3320313c0.3769531-0.5595703,0.8300781-1.0585938,1.3261719-1.5478516
	c0.3847656-0.3798828,0.4814453-0.5273438,0.6269531-1.1054688c0.0644531-0.2578125,0.1601563-0.5488281,0.1103516-0.921875
	C7.5234375,8.309082,7.3574219,8.090332,7.2636719,7.7875977C7.1953125,7.5727539,7.171875,7.331543,7.078125,7.0874023
	C6.8964844,6.6079102,6.8125,6.3364258,6.5253906,5.9077148C6.4033203,5.7250977,6.2519531,5.4975586,6.1210938,5.465332
	C5.71875,5.3676758,5.5820313,5.7397461,5.2734375,5.9819336C5.1210938,6.1000977,4.9018555,6.1557617,4.793457,6.2397461
	C4.5048828,6.4614258,4.3735352,6.7543945,4.1303711,7.0131836C3.4282227,7.7612305,2.2421875,7.8647461,0.6660156,7.8608398
	C0.9936523,7.3110352,1.9677734,7.5874023,2.65625,7.418457C3.0024414,7.3344727,3.1611328,7.1157227,3.4301758,7.050293
	c0.315918-0.2626953,0.2871094-0.6044922,0.5893555-0.9208984C4.3735352,5.7583008,5.2431641,5.690918,5.2734375,5.1342773
	c0.0175781-0.3505859-0.4545898-0.65625-0.6640625-0.8476563c-0.5185547-0.4755859-0.9350586-0.8828125-1.3266602-1.4375
	C3.1235352,2.6235352,2.9116211,2.3461914,2.9140625,2.0014648C3.0585938,2.3911133,3.418457,2.4838867,3.7988281,2.7749023
	c0.2431641,0.1865234,0.4492188,0.4755859,0.7001953,0.7001953C4.621582,3.5854492,4.7597656,3.6713867,4.9042969,3.7700195
	C5.2207031,3.987793,5.5566406,4.2416992,6.046875,4.2866211c0.75,0.0673828,1.8515625-0.078125,2.3955078-0.40625
	C8.8515625,3.6342773,9.2890625,3.105957,9.3261719,2.4438477c0.0087891-0.1474609-0.03125-0.2939453-0.0361328-0.4794922
	c-0.0068359-0.2695313,0.0595703-0.5800781,0-0.8476563C9.2197266,0.7993164,9.0078125,0.6391602,8.8847656,0.3061523z"/>
</svg>
