<?xml version="1.0" encoding="utf-8"?>
<!-- Generator: Adobe Illustrator 15.1.0, SVG Export Plug-In  -->
<!DOCTYPE svg [
	<!ENTITY ns_flows "http://ns.adobe.com/Flows/1.0/">
]>
<svg version="1.2" baseProfile="tiny"
	 xmlns="http://www.w3.org/2000/svg" xmlns:xlink="http://www.w3.org/1999/xlink" xmlns:a="http://ns.adobe.com/AdobeSVGViewerExtensions/3.0/"
	 x="0px" y="0px" width="12px" height="21px" viewBox="-0.3359375 -0.2529297 12 21" xml:space="preserve">
<defs>
</defs>
<path fill-rule="evenodd" d="M6.0869141,0.4375C5.9570313,0.8603516,5.1455078,0.9072266,5.3134766,0.1787109
	C5.5175781-0.1435547,6.1328125-0.0136719,6.0869141,0.4375z"/>
<path fill-rule="evenodd" d="M5.6816406,1.5791016C5.8154297,1.9375,5.8759766,2.3681641,5.9394531,2.7958984
	c0.7832031,0.0400391,1.7509766-0.1044922,2.3222656,0.1474609C7.9384766,3.1240234,7.6923828,3.3818359,7.4873047,3.6806641
	c-0.4804688,0.2431641-0.8544922,0.59375-1.2900391,0.8837891c0.6015625,0.3457031,1.2783203,0.6054688,1.8798828,0.9589844
	c0.5878906,0.3447266,1.2451172,0.6201172,1.6582031,1.1416016C8.6875,7.5341797,7.4550781,8.2177734,6.3085938,8.9873047
	c0.2304688,0.3154297,0.6083984,0.5273438,0.9580078,0.8105469c0.1542969,0.125,0.3095703,0.2792969,0.4785156,0.4052734
	c0.1708984,0.1269531,0.4023438,0.2050781,0.5166016,0.3320313c0.0615234,0.0683594,0.1962891,0.3193359,0.1845703,0.4052734
	c-0.0283203,0.2011719-0.3310547,0.2666016-0.5166016,0.3691406c-0.5371094,0.296875-1.2138672,0.8105469-1.6210938,1.2529297
	C6.8320313,13.0126953,7.3330078,13.5869141,7.9667969,14c0.1015625,0.0654297,0.3525391,0.0693359,0.515625,0.1474609
	c0.2363281,0.1113281,0.6611328,0.4414063,0.6269531,0.7001953c-0.0234375,0.1767578-0.4501953,0.4892578-0.5898438,0.5888672
	c-0.6943359,0.4970703-1.5224609,0.8085938-2.2851563,1.1796875c0.6679688,0.2412109,1.234375,0.5839844,1.9169922,0.8105469
	c0.3779297,0.5429688,1.2373047,0.6054688,1.6210938,1.1425781c-0.2822266,0.0175781-0.5068359-0.1728516-0.7373047-0.2578125
	c-0.2685547-0.0986328-0.515625-0.1640625-0.7734375-0.2949219c-0.2402344-0.1220703-0.4501953-0.2597656-0.6630859-0.4052734
	c-0.4560547-0.3095703-0.9326172-0.6015625-1.5849609-0.7734375c-0.2539063,0.9619141-0.0185547,2.4140625-0.2949219,3.3535156
	c-0.1425781-0.2021484-0.0634766-0.4648438-0.0742188-0.7001953c-0.0380859-0.8701172-0.1689453-1.703125-0.1474609-2.6904297
	c-1.1416016,0.2705078-1.9755859,1.0458984-2.9111328,1.4003906c0.0839844-0.5185547,0.5898438-0.6142578,0.8105469-0.9951172
	c0.6904297-0.0849609,1.0371094-0.5117188,1.6953125-0.6269531c-0.1826172-0.1982422-0.4658203-0.2802734-0.7001953-0.4052734
	c-0.6699219-0.3554688-1.4257813-0.7060547-2.0273438-1.1787109c0.6503906-0.6894531,1.4433594-1.2871094,2.2851563-1.8066406
	c0.2763672-0.1699219,0.5957031-0.3066406,0.7744141-0.5898438c-0.0830078-0.2578125-0.359375-0.3417969-0.5527344-0.4785156
	c-0.1982422-0.1396484-0.375-0.3193359-0.5527344-0.4794922c-0.3515625-0.3154297-0.7705078-0.5917969-0.9951172-1.03125
	c0.1269531,0.0292969,0.1416016-0.0556641,0.2578125-0.0371094c0.4648438-0.4921875,1.1152344-0.9052734,1.6953125-1.3271484
	C5.328125,9.2080078,5.5039063,9.1787109,5.4238281,9.0615234c-0.0283203-0.2119141-0.2929688-0.3095703-0.4423828-0.40625
	C4.5097656,8.3525391,4.0087891,7.9755859,3.4697266,7.6972656C3.2724609,7.5947266,3.0771484,7.5341797,2.8808594,7.4394531
	C2.3847656,7.2001953,1.9179688,6.7304688,1.3701172,6.4814453c0.1777344-0.2099609,0.4394531-0.1777344,0.6630859-0.2578125
	C2.3193359,6.1201172,2.6025391,5.9287109,2.8808594,5.78125C3.6992188,5.3447266,4.5,4.8486328,5.4238281,4.4912109
	C5.3359375,4.3261719,5.125,4.2597656,4.9814453,4.1591797C4.8261719,4.0507813,4.6835938,3.9384766,4.5390625,3.828125
	C4.2568359,3.6103516,3.8720703,3.4365234,3.7646484,3.0537109c0.2607422-0.4160156,1.1435547-0.2080078,1.7695313-0.2578125
	C5.5263672,2.3330078,5.5410156,1.8935547,5.6816406,1.5791016z M6.0136719,3.1269531
	c-0.0869141,0.3027344-0.0214844,0.7539063,0,1.0693359c0.5820313-0.2773438,1.1513672-0.5683594,1.4736328-1.1054688
	C7.0283203,3.1347656,6.5205078,3.1308594,6.0136719,3.1269531z M4.1708984,3.2011719
	c0.2021484,0.375,0.8955078,0.578125,1.3632813,0.8105469c0-0.2822266,0-0.5644531,0-0.8476563
	C5.0849609,3.1816406,4.5615234,3.1259766,4.1708984,3.2011719z M4.5019531,5.2285156
	C3.8935547,5.5224609,3.3984375,5.7373047,2.8808594,6.0390625C2.6259766,6.1875,2.2568359,6.2910156,2.1806641,6.5917969
	c0.2285156,0.2978516,0.5263672,0.4306641,0.8847656,0.5527344c0.1367188,0.046875,0.328125,0.0517578,0.4414063,0.1103516
	c0.140625,0.0732422,0.2373047,0.2490234,0.3691406,0.3320313C3.984375,7.6552734,4.1230469,7.703125,4.2441406,7.7714844
	c0.375,0.2089844,0.7714844,0.4580078,1.2167969,0.5527344c0.0908203-1.1005859,0.0722656-2.3105469,0.0732422-3.5019531
	C5.0712891,4.8222656,4.8583984,5.0566406,4.5019531,5.2285156z M6.0498047,8.6552734
	C6.2646484,8.5351563,6.4755859,8.3945313,6.6767578,8.25c0.2089844-0.1494141,0.4365234-0.2587891,0.6269531-0.4052734
	C7.4433594,7.7373047,7.5302734,7.5830078,7.671875,7.4765625c0.46875-0.3525391,1.1269531-0.3769531,1.5107422-0.8847656
	C8.203125,5.9990234,7.2519531,5.3779297,6.1240234,4.9335938C6.0771484,6.0527344,6.1123047,7.4433594,6.0498047,8.6552734z
	 M5.9765625,12.3046875c0.3642578-0.1943359,0.7080078-0.4179688,1.0322266-0.6640625
	c0.3154297-0.2392578,0.6601563-0.4775391,0.9208984-0.7734375c-0.7158203-0.4023438-1.2792969-0.9560547-1.9160156-1.4375
	C6.0195313,10.3828125,5.9472656,11.4511719,5.9765625,12.3046875z M4.6132813,10.2402344
	c-0.2705078,0.1796875-0.6220703,0.3447266-0.6269531,0.5898438c-0.0058594,0.3037109,0.4492188,0.5214844,0.7001953,0.7001953
	c0.3154297,0.2246094,0.5185547,0.4501953,0.8105469,0.5898438c-0.0244141-0.7744141,0.0498047-1.6464844-0.0361328-2.3583984
	C5.4580078,9.7392578,5.4550781,9.7177734,5.4238281,9.7246094C5.1923828,9.8847656,4.9453125,10.0185547,4.6132813,10.2402344z
	 M5.9765625,16.2480469c0.2890625,0.0566406,0.5126953-0.09375,0.7001953-0.2216797
	c0.5820313-0.3974609,1.0205078-0.796875,1.6220703-1.1425781c-0.0644531-0.2792969-0.3525391-0.3457031-0.5537109-0.515625
	c-0.2001953-0.1699219-0.3447266-0.4277344-0.5527344-0.5898438c-0.3603516-0.28125-0.8193359-0.4384766-1.1425781-0.7734375
	c-0.0361328,0-0.0732422,0-0.1103516,0C5.9228516,14.0683594,5.8398438,15.2490234,5.9765625,16.2480469z M4.8710938,13.5576172
	c-0.1308594,0.0791016-0.3076172,0.1152344-0.4052734,0.1835938c-0.1679688,0.1181641-0.2695313,0.3173828-0.4423828,0.4423828
	c-0.3330078,0.2412109-0.7578125,0.3681641-0.9951172,0.7001953c0.8457031,0.4443359,1.6416016,0.9384766,2.5058594,1.3642578
	c-0.0498047-0.9824219-0.0019531-2.0625-0.0732422-3.0224609c-0.0029297-0.0224609-0.0058594-0.0439453-0.0371094-0.0371094
	C5.1943359,13.2900391,5.0791016,13.4306641,4.8710938,13.5576172z"/>
<path fill-rule="evenodd" d="M2.9912109,2.2431641c0.0449219,0.1035156,0.0410156,0.2539063,0.0371094,0.4052734
	C2.7880859,2.8652344,2.3701172,2.7470703,2.328125,2.5009766C2.2666016,2.1435547,2.7070313,1.9375,2.9912109,2.2431641z"/>
<path fill-rule="evenodd" d="M9.4042969,2.1689453c0.1083984,0.1240234,0.1533203,0.4277344,0.0732422,0.6269531
	C8.7392578,3.2587891,8.5839844,1.8701172,9.4042969,2.1689453z"/>
<path fill-rule="evenodd" d="M11.0253906,6.3339844c0.0419922,0.25-0.0791016,0.3378906-0.1474609,0.4785156
	c-0.3847656,0.0537109-0.5009766-0.1621094-0.4785156-0.515625C10.5537109,6.1494141,10.9130859,6.1523438,11.0253906,6.3339844z"/>
<path fill-rule="evenodd" d="M0.5595703,6.4072266c0.0205078,0.3154297-0.265625,0.5058594-0.5166016,0.3320313
	c-0.0732422-0.1279297-0.0478516-0.4277344,0.0361328-0.515625C0.3212891,6.203125,0.4755859,6.2685547,0.5595703,6.4072266z"/>
<path fill-rule="evenodd" d="M4.0234375,6.8125C3.6044922,6.390625,4.4726563,6.0605469,4.5761719,6.4814453
	C4.6376953,6.7314453,4.3964844,6.875,4.0234375,6.8125z"/>
<path fill-rule="evenodd" d="M7.2294922,6.296875c0.2714844,0.1679688,0.0595703,0.5498047-0.1845703,0.5898438
	C6.5361328,6.9707031,6.3378906,6.15625,7.2294922,6.296875z"/>
<path fill-rule="evenodd" d="M9.8466797,10.7929688c-0.1660156,0.2480469-0.5390625,0.1035156-0.5527344-0.1103516
	C9.2705078,10.3388672,9.890625,10.2626953,9.8466797,10.7929688z"/>
<path fill-rule="evenodd" d="M2.1806641,10.4619141c0.0722656,0.1220703,0.1396484,0.1923828,0.0742188,0.3681641
	c-0.1191406,0.0537109-0.21875,0.1259766-0.40625,0.1103516C1.5830078,10.7568359,1.7421875,10.3515625,2.1806641,10.4619141z"/>
<path fill-rule="evenodd" d="M1.4804688,14.8476563c-0.0068359,0.2265625-0.0712891,0.3945313-0.2216797,0.4785156
	c-0.1464844-0.0371094-0.2568359-0.1113281-0.3320313-0.2207031C0.9189453,14.8037109,1.2998047,14.6367188,1.4804688,14.8476563z"
	/>
<path fill-rule="evenodd" d="M10.546875,15.0683594c-0.0742188,0.1103516-0.1386719,0.2304688-0.2587891,0.2949219
	C9.5820313,15.2705078,10.2490234,14.3984375,10.546875,15.0683594z"/>
</svg>
