<?xml version="1.0" encoding="utf-8"?>
<!-- Generator: Adobe Illustrator 15.1.0, SVG Export Plug-In  -->
<!DOCTYPE svg [
	<!ENTITY ns_flows "http://ns.adobe.com/Flows/1.0/">
]>
<svg version="1.2" baseProfile="tiny"
	 xmlns="http://www.w3.org/2000/svg" xmlns:xlink="http://www.w3.org/1999/xlink" xmlns:a="http://ns.adobe.com/AdobeSVGViewerExtensions/3.0/"
	 x="0px" y="0px" width="14px" height="29px" viewBox="-0.5102539 -0.4946289 14 29" xml:space="preserve">
<defs>
</defs>
<path fill-rule="evenodd" d="M8.831543,25.362793c-0.1953125-0.3496094-0.0126953-0.5966797,0.2138672-0.8964844
	c0.3681641-0.4873047,0.8144531-0.8994141,1.1503906-1.3837891c0.2431641-0.3515625,0.4599609-0.6865234,0.7216797-0.9746094
	c0.1308594-0.1455078,0.3007813-0.2617188,0.4472656-0.3896484c0.1630859-0.1425781,0.2519531-0.3017578,0.3320313-0.5068359
	c-0.1855469-0.3085938-0.4902344-0.4990234-0.7207031-0.7607422c-0.1660156-0.1875-0.3007813-0.3994141-0.46875-0.5849609
	c-0.4824219-0.5341797-0.9941406-1.0703125-1.4619141-1.6376953c-0.6220703-0.7539063-1.1533203-1.5878906-1.871582-2.2607422
	c-0.0629883,0.7294922-0.0053711,1.4648438,0.0390625,2.2216797c0.0424805,0.7216797-0.0131836,1.4677734,0.0390625,2.2421875
	c0.0668945,0.9912109,0.1137695,2.2675781,0.0390625,3.3525391c-0.0239258,0.3466797-0.0244141,0.75-0.1367188,1.0332031
	c-0.0620117,0.1591797-0.1899414,0.3359375-0.2924805,0.4882813c-0.0483398,0.0722656-0.1088867,0.15625-0.175293,0.2138672
	C6.6220703,25.574707,6.53125,25.6479492,6.4526367,25.6362305C6.4272461,25.418457,6.3198242,25.2817383,6.21875,25.1293945
	c-0.0488281-0.0732422-0.1123047-0.1552734-0.1367188-0.2148438c-0.1064453-0.2607422-0.1181641-0.7070313-0.1557617-1.0136719
	c-0.0419922-0.3417969-0.1303711-0.6884766-0.15625-0.9941406c-0.0415039-0.5048828,0-1.0693359,0-1.6181641
	c0-0.5419922-0.0366211-1.1025391,0-1.6181641c0.015625-0.2148438,0.0610352-0.4257813,0.078125-0.6425781
	c0.0175781-0.2148438,0.065918-0.4287109,0.078125-0.6435547c0.0429688-0.7548828-0.0322266-1.5048828,0-2.2421875
	c-0.1157227,0.0029297-0.1591797,0.1728516-0.2338867,0.2734375C5.3125,16.9233398,4.7338867,17.3540039,4.2495117,17.7993164
	c-0.199707,0.1835938-0.3867188,0.3896484-0.6040039,0.5458984c-0.1108398,0.0791016-0.2397461,0.1533203-0.3510742,0.234375
	c-0.1103516,0.0791016-0.2363281,0.1484375-0.3310547,0.2333984c-0.1083984,0.0957031-0.2026367,0.2480469-0.3120117,0.3701172
	c-0.2167969,0.2412109-0.4145508,0.4716797-0.6435547,0.7216797c-0.2324219,0.2529297-0.4448242,0.4873047-0.5458984,0.8769531
	c0.0454102,0.2402344,0.2319336,0.3681641,0.3896484,0.5458984c0.1479492,0.1660156,0.2148438,0.3916016,0.3510742,0.5849609
	c0.121582,0.1738281,0.3217773,0.3134766,0.4677734,0.4873047c0.1455078,0.1728516,0.2910156,0.3564453,0.4291992,0.5263672
	c0.2163086,0.2666016,0.4555664,0.4892578,0.7016602,0.7412109c0.152832,0.15625,0.21875,0.2070313,0.3120117,0.4287109
	c0.0742188,0.1767578,0.1005859,0.375,0.0195313,0.6240234c-0.0449219,0.1376953-0.1318359,0.1933594-0.2338867,0.2529297
	c-0.1333008-0.0136719-0.2299805-0.1015625-0.3510742-0.15625c-0.1196289-0.0537109-0.2646484-0.0693359-0.3701172-0.1357422
	c-0.1367188-0.0869141-0.2514648-0.2988281-0.3901367-0.46875c-0.3740234-0.4570313-0.8583984-0.8574219-1.2670898-1.2666016
	c-0.3857422-0.3857422-0.8637695-0.8261719-1.2285156-1.3251953C0.1694336,21.4526367,0.0048828,21.2387695,0,21.0737305
	c-0.0078125-0.2451172,0.2441406-0.4775391,0.4287109-0.6816406c0.5375977-0.5957031,1.0029297-1.2177734,1.5400391-1.7548828
	c0.3583984-0.3583984,0.7407227-0.7207031,1.1113281-1.0908203c0.3764648-0.3769531,0.7270508-0.8007813,1.0917969-1.1123047
	c0.1616211-0.1367188,0.3779297-0.2314453,0.5458984-0.3701172c0.0805664-0.0664063,0.1337891-0.1728516,0.2143555-0.2529297
	c0.0834961-0.0839844,0.1801758-0.1357422,0.2338867-0.2148438c0.140625-0.2050781,0.2426758-0.4970703,0.3706055-0.7402344
	c0.1303711-0.2490234,0.277832-0.4804688,0.3896484-0.7021484c-0.0244141-0.4316406,0.0332031-0.8515625,0-1.2871094
	c-0.0258789-0.3388672-0.1083984-0.7109375-0.0976563-1.1308594c0.0063477-0.2451172,0.0825195-0.4921875,0.0976563-0.7402344
	c0.046875-0.7529297-0.0200195-1.5498047-0.0585938-2.359375C5.831543,7.8647461,5.8222656,7.0698242,5.7900391,6.2973633
	C5.7558594,5.4956055,5.7915039,4.7104492,5.7314453,3.9389648C5.6860352,3.3618164,5.6538086,2.7954102,5.6337891,2.222168
	c-0.0063477-0.1875,0.0053711-0.3886719-0.0195313-0.5644531c-0.0317383-0.2275391-0.1875-0.5400391-0.2924805-0.7412109
	C5.2070313,0.6958008,5.0620117,0.4936523,4.9516602,0.2739258c0.0810547-0.1728516,0.3759766-0.1318359,0.4873047-0.2734375
	c0.2568359-0.0087891,0.5087891,0.1347656,0.7211914,0.2333984C6.2880859,0.2944336,6.3994141,0.362793,6.5112305,0.4291992
	c0.0483398,0.0283203,0.1538086,0.0615234,0.1948242,0.0976563c0.0429688,0.0380859,0.0795898,0.125,0.1367188,0.1953125
	c0.1020508,0.1240234,0.1630859,0.1835938,0.253418,0.3505859c0.0776367,0.1435547,0.2368164,0.4277344,0.2529297,0.6044922
	c0.0136719,0.1445313-0.0297852,0.28125-0.0385742,0.4287109c-0.0610352,1.0048828,0,2.0771484,0,3.1386719
	c0,2.1123047-0.15625,3.9199219-0.15625,6.1015625c0,0.7646484,0,1.5498047,0,2.3398438
	c0,0.2666016-0.0415039,0.5615234,0,0.7792969c0.0185547,0.0976563,0.2128906,0.4287109,0.2924805,0.5068359
	c0.1367188,0.1357422,0.4355469,0.2578125,0.6240234,0.3710938c0.1923828,0.1152344,0.4091797,0.2421875,0.5849609,0.3896484
	c0.1015625,0.0859375,0.1875,0.2128906,0.2929688,0.3310547c0.6435547,0.7275391,1.3242188,1.5058594,1.9882813,2.2421875
	c0.1953125,0.2167969,0.3945313,0.4130859,0.5839844,0.6435547c0.1757813,0.2119141,0.3632813,0.4169922,0.546875,0.6621094
	c0.1484375,0.2011719,0.3417969,0.4130859,0.5449219,0.6630859c0.1806641,0.2226563,0.4648438,0.5439453,0.46875,0.7412109
	c0.0009766,0.1171875-0.1240234,0.3183594-0.1953125,0.4873047c-0.1259766,0.296875-0.2490234,0.4433594-0.4492188,0.6435547
	s-0.3886719,0.4492188-0.5839844,0.6816406c-0.2480469,0.296875-0.5292969,0.5693359-0.8183594,0.8574219
	c-0.2841797,0.2841797-0.5019531,0.6162109-0.8193359,0.8779297c-0.1337891,0.1103516-0.3212891,0.2275391-0.4873047,0.3505859
	c-0.1757813,0.1308594-0.3105469,0.3056641-0.46875,0.3710938C9.1303711,25.3383789,8.9311523,25.3452148,8.831543,25.362793z"/>
<path fill-rule="evenodd" d="M6.4331055,26.1430664c-0.003418-0.0166016,0.0078125-0.0185547,0.0195313-0.0195313
	c0.3056641,0.1552734,0.5639648,0.3583984,0.8579102,0.5263672c0.0493164,0.2558594,0.1313477,0.5507813,0.0776367,0.8193359
	c-0.0170898,0.0849609-0.1015625,0.1943359-0.1557617,0.2919922c-0.1240234,0.2226563-0.1455078,0.2753906-0.3896484,0.3896484
	c-0.0380859,0.0175781-0.0913086,0.0185547-0.1367188,0.0390625c-0.0449219,0.0205078-0.0639648,0.0527344-0.0976563,0.0585938
	c-0.206543,0.0361328-0.3110352-0.0175781-0.4287109-0.1171875c-0.1669922-0.140625-0.2949219-0.3564453-0.409668-0.5654297
	c-0.0288086-0.3701172,0.0966797-0.5849609,0.234375-0.8574219C6.1123047,26.4946289,6.2719727,26.2866211,6.4331055,26.1430664z"/>
</svg>
