<?xml version="1.0" encoding="utf-8"?>
<!-- Generator: Adobe Illustrator 15.1.0, SVG Export Plug-In  -->
<!DOCTYPE svg [
	<!ENTITY ns_flows "http://ns.adobe.com/Flows/1.0/">
]>
<svg version="1.2" baseProfile="tiny"
	 xmlns="http://www.w3.org/2000/svg" xmlns:xlink="http://www.w3.org/1999/xlink" xmlns:a="http://ns.adobe.com/AdobeSVGViewerExtensions/3.0/"
	 x="0px" y="0px" width="12px" height="19px" viewBox="-0.5361328 -0.8017578 12 19" xml:space="preserve">
<defs>
</defs>
<path fill-rule="evenodd" d="M6.2285156,2.2841797c0.0229492,0.5419922-0.0175781,1.1474609,0.1103516,1.5849609
	c0.6894531,0,1.1425781-0.1318359,1.7324219-0.2949219c0.4335938-0.1201172,0.8613281-0.2802734,1.1054688-0.6269531
	c0.1835938-0.2607422,0.2851563-0.6865234,0.4423828-1.0322266c0.1582031-0.3486328,0.2998047-0.7861328,0.5527344-0.9208984
	c0.3564453-0.1894531,0.9091797-0.0537109,1.2900391,0.0732422c-0.1308594,0.1269531-0.3417969,0.1738281-0.515625,0.2587891
	c-0.5605469,0.6660156-0.5292969,1.3632813-1.0332031,1.953125C9.7998047,3.4130859,9.6103516,3.5175781,9.4345703,3.6474609
	C9.2792969,3.7626953,9.1308594,3.9345703,8.9921875,4.0166016C8.7138672,4.1796875,8.3642578,4.3017578,8.0341797,4.421875
	c-0.25,0.0908203-0.4941406,0.1660156-0.7734375,0.2207031c-0.5722656,0.1113281-1.0683594,0.3017578-1.1430664,0.921875
	C6.0473633,6.1484375,6.0810547,7.2734375,6.0810547,7.8486328c0,0.7705078,0.0117188,1.6328125-0.0371094,2.359375
	c-0.0639648,0.953125,0.1337891,1.8730469,0.1845703,2.7636719c0.0283203,0.5058594-0.0014648,0.9697266,0,1.4746094
	c0.0029297,1.1425781,0.0078125,2.5371094-0.5898438,3.0957031c-0.215332-1.3505859-0.0102539-2.6982422-0.1103516-4.0175781
	c-0.0161133-0.2060547-0.0927734-0.3886719-0.1108398-0.5888672c-0.0625-0.6884766-0.074707-1.5263672-0.0366211-2.2851563
	c0.012207-0.25,0.1030273-0.515625,0.1103516-0.7744141c0.0102539-0.3681641-0.0737305-0.7675781-0.0737305-1.1425781
	c0-1.1123047,0.1186523-2.3037109,0.0737305-3.5009766C4.9638672,4.7216797,4.1914063,4.7304688,3.574707,4.4580078
	c-0.1821289-0.0800781-0.3945313-0.21875-0.5898438-0.3310547c-0.1943359-0.1123047-0.4355469-0.21875-0.5893555-0.3320313
	C1.637207,3.2373047,1.5024414,2.2490234,0.7368164,1.6943359C0.6166992,1.4091797,0.5288086,1.0205078,0.2578125,0.8837891
	C0.1826172,0.8457031,0.0385742,0.9150391,0,0.7734375c0.3598633-0.1894531,0.890625-0.0068359,1.2158203,0.0732422
	C1.7416992,1.7724609,2.5581055,2.7890625,3.574707,3.3896484c0.5083008,0.2998047,1.1098633,0.6630859,1.8427734,0.3681641
	c-0.078125-0.5634766,0.1064453-1.0791016,0-1.4736328C5.3466797,2.0224609,5.0512695,1.9921875,4.9013672,1.8046875
	C4.4936523,1.2958984,4.612793,0.1962891,5.34375,0.0361328c0.3989258-0.0878906,1.0356445-0.0097656,1.3271484,0.1835938
	c0.3945313,0.2636719,0.4931641,0.8544922,0.2949219,1.4375C6.7080078,1.8544922,6.4008789,2.0019531,6.2285156,2.2841797z"/>
<path fill-rule="evenodd" d="M3.6484375,6.2646484C3.659668,6.7685547,3.5639648,7.0478516,3.1323242,7.1855469
	C2.7763672,7.2998047,1.949707,7.2119141,1.8427734,6.8173828C1.7895508,6.6230469,1.8945313,6.2871094,1.9902344,6.1533203
	C2.3525391,5.6484375,3.3369141,5.7626953,3.6484375,6.2646484z"/>
<path fill-rule="evenodd" d="M8.7714844,5.8955078c0.0009766,0,0.0439453-0.0380859,0.0732422-0.0361328
	c0.7285156,0.0429688,0.78125,1.0419922,0.2578125,1.3632813c-0.1308594,0.0810547-0.390625,0.1826172-0.515625,0.1845703
	C8.2558594,7.4101563,7.7988281,7.0771484,7.7392578,6.7802734C7.6162109,6.1660156,8.0634766,5.8701172,8.7714844,5.8955078z"/>
<path fill-rule="evenodd" d="M7.7763672,11.0556641c-0.3095703-0.3193359-0.3720703-1.09375,0.0371094-1.3271484
	c0.0742188-0.0429688,0.5742188-0.1523438,0.6992188-0.1474609c0.5214844,0.0214844,0.8447266,0.53125,0.5898438,1.1054688
	C8.9296875,11.078125,8.3222656,11.1699219,7.7763672,11.0556641z"/>
<path fill-rule="evenodd" d="M2.6533203,9.7285156c0.7148438-0.1308594,1.2836914,0.2998047,1.105957,0.9951172
	c-0.0712891,0.2783203-0.4941406,0.5771484-0.8110352,0.5527344c-0.1889648-0.0136719-0.5478516-0.1884766-0.6635742-0.3310547
	c-0.1513672-0.1884766-0.2114258-0.6054688-0.1474609-0.8476563C2.1928711,9.8867188,2.4243164,9.7705078,2.6533203,9.7285156z"/>
<path fill-rule="evenodd" d="M2.9116211,13.4882813c0.2558594-0.0830078,0.8012695-0.0908203,0.9946289,0
	c0.3896484,0.1826172,0.4780273,1.0146484,0.2211914,1.3632813c-0.0541992,0.0742188-0.3945313,0.3037109-0.515625,0.3320313
	c-0.5058594,0.1152344-1.1352539-0.3066406-1.2163086-0.6640625C2.2871094,14.0429688,2.6206055,13.5820313,2.9116211,13.4882813z"
	/>
<path fill-rule="evenodd" d="M8.8076172,13.4511719c0.7607422,0.4287109,0.5566406,1.7587891-0.2578125,1.8798828
	c-0.5488281,0.0810547-0.7695313-0.2480469-0.8847656-0.7373047c-0.09375-0.4072266-0.09375-0.5068359,0.1484375-0.8105469
	C8.0322266,13.5078125,8.2119141,13.3808594,8.8076172,13.4511719z"/>
</svg>
