<?xml version="1.0" encoding="utf-8"?>
<!-- Generator: Adobe Illustrator 15.1.0, SVG Export Plug-In  -->
<!DOCTYPE svg [
	<!ENTITY ns_flows "http://ns.adobe.com/Flows/1.0/">
]>
<svg version="1.2" baseProfile="tiny"
	 xmlns="http://www.w3.org/2000/svg" xmlns:xlink="http://www.w3.org/1999/xlink" xmlns:a="http://ns.adobe.com/AdobeSVGViewerExtensions/3.0/"
	 x="0px" y="0px" width="21px" height="15px" viewBox="-0.671875 -0.1523438 21 15" xml:space="preserve">
<defs>
</defs>
<path fill-rule="evenodd" d="M14.3359375,0c0.2089844,0.2939453,0.6484375,1.3310547,0.6630859,1.8798828
	c0.0078125,0.2890625-0.0947266,0.5673828-0.0732422,0.8476563c0.0371094,0.4794922,0.3007813,0.8212891,0.2949219,1.2529297
	c0.2646484,0.0664063,0.6376953,0.0263672,0.9580078,0.0371094c0.3027344-0.5458984,0.1191406-1.5761719,0.2207031-2.3222656
	c0.1386719,0.1123047,0.1367188,0.3837891,0.1845703,0.5898438c0.1044922,0.4492188,0.2041016,1.0253906,0.1474609,1.7324219
	c0.4316406,0.0839844,0.9980469,0.0332031,1.4375,0.1103516c0.1152344-0.7177734,0.0576172-1.4521484,0.1103516-2.1748047
	c0.2255859,0.1464844,0.1767578,0.5097656,0.2216797,0.8115234c0.0595703,0.4121094,0.1796875,0.8857422,0,1.3261719
	c0.5351563,0.0664063,1.1679688,0.0351563,1.6210938,0.1845703c-0.3115234,0.4501953-1.0976563,0.0703125-1.6953125,0.2207031
	c-0.1816406,0.6425781,0.1523438,1.3945313,0.0742188,1.9902344c-0.0332031,0.2421875-0.2021484,0.3642578-0.2216797,0.5898438
	c-0.2236328-0.4248047-0.0576172-1.0371094-0.1103516-1.5849609c-0.0292969-0.3037109-0.1972656-0.6503906-0.0742188-1.03125
	c-0.4960938,0.0039063-0.9882813,0.0058594-1.4375-0.0371094c-0.1464844,0.3925781,0.0126953,0.9316406,0.0371094,1.4746094
	c0.0253906,0.5585938,0.0449219,1.1787109,0,1.6582031c-0.0273438,0.2998047-0.109375,0.6005859-0.2949219,0.7734375
	c-0.0273438-0.6494141,0.0498047-1.1787109-0.0371094-1.6953125C16.3115234,6.3310547,16.1728516,6.0605469,16.1416016,5.75
	c-0.0390625-0.3935547,0.0292969-0.8095703,0-1.2900391c-0.1679688-0.0361328-0.3828125-0.0830078-0.515625-0.0371094
	C15.4257813,4.4921875,15.4902344,4.6875,15.3310547,4.7548828c-0.2353516-0.0224609-0.1425781-0.3740234-0.4423828-0.3320313
	c-0.1337891,0.484375,0.109375,0.9482422,0.0371094,1.4746094c-0.0195313,0.140625-0.1308594,0.2871094-0.1474609,0.4414063
	c-0.0166016,0.1513672,0.0361328,0.3291016,0.0361328,0.4794922c0,0.4824219-0.0761719,0.9599609-0.0361328,1.4375
	c0.0205078,0.2539063,0.1376953,0.5185547,0.1474609,0.7734375c0.0146484,0.4130859-0.1914063,0.765625-0.2578125,1.1425781
	c-0.0488281,0.2773438,0.0576172,0.5458984-0.1113281,0.7744141c-0.1875-0.1591797-0.1074219-0.4287109-0.1103516-0.6269531
	c-0.0039063-0.3964844-0.0458984-0.7773438-0.0732422-1.1054688c-0.0224609-0.2607422,0.03125-0.5146484,0-0.7734375
	c-0.015625-0.1308594-0.0917969-0.2382813-0.1113281-0.3691406c-0.0771484-0.5380859-0.015625-1.0830078-0.1103516-1.5849609
	c-0.0517578-0.2714844-0.1757813-0.5439453-0.1845703-0.7734375c-0.0039063-0.125,0.0673828-0.234375,0.0742188-0.3691406
	c0.015625-0.2910156-0.1308594-0.5927734-0.0742188-0.8837891c-0.1123047-0.0507813-0.4082031,0.0322266-0.6259766,0
	c-0.3955078,1.2919922,0.0615234,3.2304688-0.1474609,4.5693359c-0.1796875,0.0078125-0.1152344-0.1962891-0.1474609-0.2949219
	c-0.2246094-0.6875-0.0771484-2.1884766-0.1474609-3.2431641c-0.0214844-0.3300781-0.1484375-0.6240234,0-0.9580078
	c-0.2705078-0.0976563-0.609375,0.0527344-0.9580078,0c0.1533203,1.3183594,0.0849609,2.9511719-0.0371094,4.3125
	c-0.1025391-0.0791016-0.1064453-0.2949219-0.1474609-0.4423828c-0.0419922-0.1503906-0.1269531-0.2988281-0.1474609-0.4423828
	c-0.0380859-0.2675781,0.0146484-0.6269531,0-0.9580078c-0.0107422-0.2392578-0.0537109-0.4580078-0.0361328-0.6640625
	c0.0146484-0.1806641,0.0947266-0.3427734,0.109375-0.515625c0.0439453-0.4951172-0.1142578-0.8720703-0.2207031-1.2900391
	c-0.2617188-0.0205078-0.6083984,0.0439453-0.8105469-0.0371094c-0.2822266,2.1914063,0.4296875,4.4013672-0.0371094,6.4130859
	c-0.1386719-0.2333984-0.0527344-0.5146484-0.0732422-0.7734375c-0.0341797-0.4257813-0.0859375-0.8369141-0.1103516-1.4013672
	c-0.0253906-0.5693359-0.1523438-1.1572266-0.1113281-1.6953125c0.0273438-0.3544922,0.1015625-0.6865234,0.0742188-1.03125
	C10.375,5.7988281,10.296875,5.5839844,10.28125,5.3808594c-0.0117188-0.1552734,0.015625-0.3232422,0-0.4785156
	c-0.0078125-0.0859375,0.0039063-0.2783203-0.109375-0.3320313c-0.1611328,0.0878906-0.0400391,0.3867188-0.0742188,0.5898438
	c-0.0263672,0.1552734-0.0771484,0.1884766-0.1113281,0.2949219c-0.0410156,0.4589844-0.0292969,0.9267578,0,1.3632813
	c0.0683594,1.0029297-0.0253906,2.0244141-0.0732422,3.0957031c-0.0205078,0.4550781-0.0839844,0.8789063-0.1474609,1.2900391
	c-0.0175781,0.1113281,0.0683594,0.3300781-0.1103516,0.3681641c0.0224609-0.2412109-0.0986328-0.4921875-0.1103516-0.7363281
	c-0.0205078-0.421875,0.0849609-0.8447266,0.1103516-1.2900391C9.7460938,7.9589844,9.65625,6.2265625,9.6923828,4.5703125
	C9.3457031,4.5429688,9.1132813,4.6308594,8.7714844,4.6074219c0.03125,1.6289063-0.0761719,3.4931641,0,5.1591797
	c0.0410156,0.9257813,0.0429688,1.9560547,0,2.8378906c-0.0292969,0.5820313-0.0878906,1.1699219-0.2949219,1.6582031
	c-0.0976563-1.1289063,0.0449219-2.3515625-0.0371094-3.5742188C8.4130859,10.3037109,8.3457031,9.9375,8.328125,9.5458984
	C8.2695313,8.2460938,8.4257813,6.9072266,8.2548828,5.75C8.2050781,5.4130859,8.0917969,5.1103516,8.0703125,4.6806641
	C7.8847656,4.703125,7.9003906,4.9648438,7.8867188,5.0859375c-0.0957031,0.8408203,0,1.8847656-0.0371094,2.7646484
	C7.7441406,7.9179688,7.7617188,8.1064453,7.6289063,8.1455078C7.6425781,7.4189453,7.625,6.5732422,7.5917969,5.8232422
	C7.5654297,5.2539063,7.5722656,4.8261719,7.2597656,4.5332031C7.078125,4.4697266,6.7988281,4.5029297,6.5957031,4.4599609
	C6.5507813,4.7763672,6.703125,5.0927734,6.6699219,5.4550781C6.6582031,5.5898438,6.5703125,5.71875,6.5595703,5.8603516
	C6.5449219,6.0488281,6.6171875,6.2226563,6.6328125,6.4130859c0.0351563,0.4189453-0.046875,0.859375-0.0732422,1.3261719
	C6.5117188,8.5917969,6.6210938,9.40625,6.375,10.0615234C6.2988281,8.1728516,6.2949219,6.2109375,6.0429688,4.4960938
	C5.7714844,4.4697266,5.59375,4.5380859,5.34375,4.5332031C5.3417969,5.0537109,5.2470703,5.5224609,5.3066406,6.0078125
	C5.328125,6.1816406,5.4375,6.3515625,5.453125,6.5234375C5.4931641,6.9541016,5.3095703,7.3320313,5.1953125,7.703125
	C5.0263672,7.5166016,5.0761719,7.1972656,5.0488281,6.9287109C5.0195313,6.65625,4.9316406,6.3974609,4.9003906,6.1181641
	c-0.0576172-0.5234375-0.0019531-1.0859375-0.109375-1.5849609c-0.3203125,0-0.6386719,0-0.9589844,0
	c-0.140625,0.6152344-0.0390625,1.3818359-0.0742188,2.1376953C3.7294922,7.3085938,3.8125,7.9472656,3.7949219,8.5136719
	C3.7851563,8.8515625,3.6904297,9.2392578,3.5,9.4355469C3.2119141,8.0058594,3.3544922,6.2021484,3.3535156,4.5703125
	C2.234375,4.4599609,0.8046875,4.6611328,0,4.2382813c0.1738281-0.140625,0.4345703-0.0634766,0.6621094-0.0732422
	c0.7890625-0.0351563,1.8417969,0.0703125,2.5429688-0.0371094C3.3398438,4.1074219,3.4042969,4.0839844,3.5,4.0175781
	c0.34375,0.1875,0.984375,0.0878906,1.5859375,0.1103516c0.2753906,0.0107422,0.5058594,0.0683594,0.6992188,0.0371094
	c0.1318359-0.0214844,0.2734375-0.1328125,0.40625-0.1474609C6.5,3.9833984,6.8291016,4.1357422,7.1484375,4.0908203
	c0.2539063-0.0351563,0.6240234-0.2109375,0.9589844,0C8.265625,4.078125,8.2470703,3.8867188,8.4765625,3.9433594
	C8.6201172,3.9716797,8.6855469,4.078125,8.8076172,4.1279297c0.4746094-0.0048828,1.0214844,0.0634766,1.2158203-0.2207031
	c0.3720703,0.2509766,1.3105469,0.2734375,1.5849609-0.0742188c0.2470703,0.2509766,1.015625,0.3183594,1.3271484,0.0742188
	C13.2226563,4.0283203,13.7207031,4.125,14.1152344,4.0175781c0.15625-0.3203125,0.0068359-0.6767578,0.0361328-1.0693359
	c0.0302734-0.3925781,0.1660156-0.8095703,0.1845703-1.2158203C14.3623047,1.1523438,14.1289063,0.546875,14.3359375,0z"/>
</svg>
