<?xml version="1.0" encoding="utf-8"?>
<!-- Generator: Adobe Illustrator 15.1.0, SVG Export Plug-In  -->
<!DOCTYPE svg [
	<!ENTITY ns_flows "http://ns.adobe.com/Flows/1.0/">
]>
<svg version="1.2" baseProfile="tiny"
	 xmlns="http://www.w3.org/2000/svg" xmlns:xlink="http://www.w3.org/1999/xlink" xmlns:a="http://ns.adobe.com/AdobeSVGViewerExtensions/3.0/"
	 x="0px" y="0px" width="14px" height="21px" viewBox="-0.7060547 -0.46875 14 21" xml:space="preserve">
<defs>
</defs>
<path fill="#B2B2B2" fill-rule="evenodd" d="M5.34375,0c0.2070313,0.1611328,0.3271484,0.4101563,0.4423828,0.6630859
	C5.7109375,1.0644531,5.6679688,1.6923828,5.7490234,2.2109375c0.0507813,0.3242188,0.2412109,0.6162109,0.2949219,0.921875
	c0.1289063,0.7275391,0.0146484,1.5507813-0.0371094,2.3212891c-0.0166016,0.2480469,0.0195313,0.4980469,0,0.7373047
	C5.9140625,7.3603516,5.5576172,8.5244141,5.7119141,9.9140625c0.5,0.3017578,1.2988281-0.0380859,1.8798828-0.0371094
	c0.2685547-0.4921875,0.3183594-1.5986328,0.2578125-2.5058594C7.8349609,7.1494141,7.7587891,6.953125,7.7392578,6.7441406
	C7.7001953,6.3339844,7.7460938,5.8798828,7.6650391,5.5654297c-0.078125-0.3056641-0.4287109-0.5214844-0.4785156-0.7744141
	C7.1015625,4.359375,7.4072266,4.0439453,7.5917969,3.7958984C7.7900391,3.5292969,7.9414063,3.203125,8.21875,3.0224609
	c0.1318359,0.6855469-0.2119141,1.2636719-0.1845703,1.8789063C8.0546875,5.3623047,8.3427734,5.7929688,8.4023438,6.265625
	c0.0410156,0.3261719,0.0107422,0.7080078,0.0371094,1.0683594c0.0625,0.8496094-0.0244141,1.5791016-0.0732422,2.4326172
	C8.625,10.0439453,9.1582031,10.0722656,9.4716797,9.8398438c-0.015625-0.2822266,0.0205078-0.5322266,0-0.7734375
	C9.4501953,8.8271484,9.3261719,8.5966797,9.2871094,8.3662109c-0.0185547-0.1074219,0.0253906-0.2373047,0-0.3320313
	c-0.0908203-0.3427734-0.4677734-0.5947266-0.3681641-1.03125c0.7490234-0.0634766,1.359375,0.0742188,1.9902344,0.1835938
	c0.6005859,0.1054688,1.0888672,0.1914063,1.4736328,0.5166016c0.4560547,0.3847656,0.9873047,1.3398438,0.6630859,2.2109375
	c-0.3535156,0.2724609-0.6757813,0.5771484-1.0683594,0.8105469c-0.5839844,0.0507813-1.1503906-0.0947266-1.6582031,0
	c-0.1650391,0.5908203,0.0205078,1.1767578-0.0371094,1.7324219c-0.0185547,0.1777344-0.1503906,0.3476563-0.1845703,0.515625
	c-0.0322266,0.1611328-0.0058594,0.3505859-0.0361328,0.5166016c-0.0341797,0.1835938-0.1318359,0.3447266-0.1474609,0.515625
	c-0.0654297,0.6757813,0.2939453,1.2519531,0.3310547,1.9902344c0.0146484,0.28125-0.0556641,0.5605469-0.0732422,0.8476563
	c-0.0380859,0.6035156,0.078125,1.2539063-0.0371094,1.7324219c-0.0634766,0.2617188-0.1533203,0.5566406-0.2578125,0.8105469
	c-0.0527344,0.1279297-0.1591797,0.2177734-0.2216797,0.3320313c-0.0634766,0.1171875-0.0410156,0.2919922-0.1835938,0.3310547
	c0.0322266-0.7421875,0.2128906-1.5683594,0.1474609-2.4326172c-0.015625-0.1962891-0.0888672-0.3896484-0.1113281-0.5888672
	c-0.0556641-0.5117188-0.0302734-1.0029297-0.1474609-1.4746094c-0.1113281-0.4482422-0.2304688-0.8632813-0.4052734-1.2158203
	c0.2695313-0.3496094,0.2421875-0.9560547,0.3691406-1.5478516c0.0263672-0.125,0.1230469-0.2460938,0.1474609-0.3691406
	c0.0615234-0.3164063,0.0244141-0.6777344,0.0361328-0.9951172c0.0117188-0.3056641,0.0810547-0.6171875-0.1474609-0.8105469
	c-0.4677734-0.1191406-0.8710938,0.0654297-1.0683594,0.3320313c-0.0244141,0.46875-0.2080078,0.9736328-0.2578125,1.5478516
	c-0.09375,1.0703125-0.0283203,2.2744141-0.0742188,3.3535156C7.8125,15.7666016,7.8681641,15.5888672,7.8125,15.4423828
	c-0.0429688-0.1142578-0.1474609-0.2060547-0.1835938-0.3320313c-0.1220703-0.421875-0.109375-1.0175781-0.1474609-1.5478516
	c-0.0195313-0.265625-0.0839844-0.4990234-0.0742188-0.7373047c0.0292969-0.7177734,0.2011719-1.4296875,0.1474609-2.1376953
	c-0.5458984,0.0810547-1.1904297,0.0634766-1.7324219,0.1474609c-0.1699219,0.4296875-0.1884766,0.9619141-0.2207031,1.4746094
	c-0.0205078,0.3271484-0.0458984,0.7236328,0,1.0683594c0.0195313,0.1464844,0.1201172,0.2988281,0.1474609,0.4423828
	C5.90625,14.6435547,5.765625,15.6298828,5.7119141,16.4375c-0.0068359,0.1054688,0.0478516,0.3095703-0.1103516,0.3681641
	c-0.0419922-0.8583984-0.28125-1.7050781-0.4794922-2.46875C5.0605469,14.0957031,4.9375,13.8330078,4.9013672,13.5996094
	c-0.0986328-0.6337891,0.0898438-1.2285156-0.0371094-1.8798828c-0.0341797-0.1787109-0.1796875-0.2695313-0.2578125-0.4423828
	c-0.0800781-0.1748047-0.0380859-0.3769531-0.1845703-0.515625c-0.2578125,0-0.515625,0-0.7734375,0
	c-0.3691406,0.5625-0.1884766,1.4179688-0.2578125,2.2480469c-0.0107422,0.1220703-0.0634766,0.2792969-0.0742188,0.4052734
	c-0.0273438,0.3408203,0.0361328,0.6796875,0,0.9951172c-0.03125,0.2773438-0.1503906,0.5263672-0.1474609,0.7744141
	c-0.1347656-0.3154297-0.1503906-0.6943359-0.2578125-1.0693359c-0.0742188-0.2597656-0.2509766-0.4863281-0.2949219-0.7373047
	c-0.0244141-0.1396484,0.0107422-0.2998047,0-0.4414063c-0.0556641-0.7333984-0.2558594-1.4345703-0.0732422-2.1748047
	C1.8007813,10.5576172,0.7890625,10.6230469,0,10.4667969c0.6992188-0.3203125,1.890625-0.1484375,2.6904297-0.3681641
	c0.1298828-0.1689453,0.1640625-0.40625,0.2207031-0.6269531c0.1074219-0.4140625,0.2255859-0.7666016,0.1845703-1.3271484
	c-0.0576172-0.7705078-0.15625-1.6181641-0.3320313-2.2841797c-0.3193359-0.1191406-0.5224609-0.1826172-0.7734375-0.40625
	C1.8691406,5.3476563,1.7529297,5.2675781,1.7314453,5.1601563C1.6875,4.9277344,1.8710938,4.7792969,1.953125,4.5332031
	C2.0292969,4.3046875,2.0126953,4.09375,2.1005859,3.8701172C2.78125,3.7480469,3.0654297,4.2587891,3.390625,4.6064453
	c0.1035156,0.4677734,0.1669922,0.9775391,0.2578125,1.5849609C3.6708984,6.34375,3.7392578,6.5117188,3.7587891,6.6708984
	c0.046875,0.3808594,0,0.8486328,0,1.2900391c0,0.421875,0.0449219,0.8876953,0,1.2529297
	c-0.0361328,0.2988281-0.2441406,0.6044922-0.1845703,0.9208984c0.5585938,0.1103516,1.0175781,0.0185547,1.1796875-0.4414063
	C4.7978516,9.5693359,4.78125,9.3964844,4.8271484,9.2138672c0.0917969-0.3632813,0.2382813-0.8583984,0.3320313-1.3271484
	c0.0605469-0.2998047,0.078125-0.6435547,0.1474609-0.9580078c0.2050781-0.921875,0.3095703-2.3476563,0.1103516-3.4277344
	C5.3505859,3.1386719,5.2089844,2.8310547,5.1220703,2.5058594c-0.0302734-0.1132813-0.0009766-0.265625-0.0361328-0.3681641
	C5.0146484,1.9306641,4.7763672,1.7861328,4.7539063,1.5849609C4.7441406,1.4970703,4.8193359,1.2109375,4.8642578,1.0322266
	C4.9101563,0.8505859,4.9609375,0.6220703,5.0117188,0.515625C5.1191406,0.2919922,5.3173828,0.2353516,5.34375,0z
	 M10.2822266,9.8037109c0.6660156,0.2001953,1.6904297,0.2421875,1.9902344-0.2578125
	c0.1425781-0.2382813,0.1640625-0.5888672,0.0732422-0.8476563c-0.0498047-0.1435547-0.265625-0.3564453-0.4785156-0.5166016
	c-0.4394531-0.3291016-1.2138672-0.546875-1.8427734-0.5898438C10.1748047,8.2636719,10.2626953,9,10.2822266,9.8037109z"/>
</svg>
