<?xml version="1.0" encoding="utf-8"?>
<!-- Generator: Adobe Illustrator 15.1.0, SVG Export Plug-In  -->
<!DOCTYPE svg [
	<!ENTITY ns_flows "http://ns.adobe.com/Flows/1.0/">
]>
<svg version="1.2" baseProfile="tiny"
	 xmlns="http://www.w3.org/2000/svg" xmlns:xlink="http://www.w3.org/1999/xlink" xmlns:a="http://ns.adobe.com/AdobeSVGViewerExtensions/3.0/"
	 x="0px" y="0px" width="10px" height="20px" viewBox="-0.7197266 -0.2792969 10 20" xml:space="preserve">
<defs>
</defs>
<path fill-rule="evenodd" d="M4.1376953,0c0.0332031,0.0166016,0.0664063,0.0322266,0.0742188,0.0742188
	c0.1748047,1.8271484,0.1796875,3.8251953,0.2949219,5.7119141c1.3710938,0.3613281,2.4296875,1.0341797,2.8007813,2.3955078
	C7.2675781,8.3232422,7.1464844,8.1064453,7.0859375,8.0351563C6.7460938,7.6308594,6.4931641,7.015625,6.0175781,6.7080078
	C5.8027344,6.5683594,5.5263672,6.4755859,5.2802734,6.3759766C5.0429688,6.2802734,4.7841797,6.1318359,4.5068359,6.1552734
	c-0.1279297,0.7324219-0.0595703,1.6601563-0.1113281,2.46875c0.6298828,0.2802734,1.3203125,0.4980469,1.7324219,0.9951172
	C5.7871094,10.1875,5.0166016,10.3261719,4.359375,10.578125c0,0.5527344,0,1.1054688,0,1.6582031
	c-0.2109375-0.1025391-0.1269531-0.4169922-0.1845703-0.6269531c-0.0244141-0.0869141-0.0976563-0.1708984-0.1103516-0.2578125
	c-0.0341797-0.2177734,0.0244141-0.4853516,0-0.7373047c-0.6591797-0.2373047-1.3535156-0.4394531-1.7695313-0.9208984
	C2.6640625,9.140625,3.3486328,8.9042969,4.0273438,8.6611328c0-0.8232422,0-1.6464844,0-2.46875
	c-1.09375,0.171875-1.9892578,0.8603516-2.4326172,1.8056641C1.4775391,7.75,1.546875,7.3857422,1.6318359,7.1875
	C1.6816406,7.0703125,1.84375,6.8710938,1.9267578,6.78125c0.4550781-0.4902344,1.2587891-0.8720703,1.9902344-0.9580078
	C4.0195313,3.9111328,3.9462891,1.8242188,4.1376953,0z M2.6640625,9.6191406
	c0.2695313,0.3564453,0.7685547,0.484375,1.2158203,0.6640625c0.0986328-0.3564453,0.1035156-0.8056641,0.1474609-1.2167969
	C4.0195313,9.0253906,3.9863281,9.0087891,3.953125,8.9931641C3.5009766,9.1787109,3.0273438,9.34375,2.6640625,9.6191406z
	 M4.4326172,10.2089844c0.5488281-0.0771484,0.9824219-0.2705078,1.2529297-0.6259766
	C5.3076172,9.3837891,4.9541016,9.1591797,4.4326172,9.1035156C4.4404297,9.4599609,4.4208984,9.9707031,4.4326172,10.2089844z"/>
<path fill-rule="evenodd" d="M0.0839844,9.2880859c0.03125-0.0068359,0.0341797,0.0136719,0.0371094,0.0361328
	c0.1279297,0.265625,0.1572266,0.5810547,0.2578125,0.8847656c0.1025391,0.3134766,0.3388672,0.6210938,0.5527344,0.9580078
	c0.2070313,0.328125,0.3789063,0.6943359,0.5898438,0.921875c0.2333984,0.2519531,0.6503906,0.5205078,1.03125,0.7373047
	c0.4462891,0.2529297,1.2275391,0.7734375,1.6591797,0.2578125c0.2148438-0.0068359,0.2832031,0.1337891,0.4423828,0.1845703
	c0.8095703-0.0546875,1.2910156-0.4023438,1.8056641-0.8115234c0.2001953-0.1591797,0.4384766-0.3193359,0.5898438-0.4785156
	C7.6845703,11.3056641,7.859375,10.25,8.3027344,9.3613281c0.1982422,0.0751953,0.0166016,0.2578125,0,0.3691406
	c-0.0615234,0.4072266-0.1464844,0.6230469-0.2578125,0.9580078c-0.1777344,0.5332031-0.3164063,0.9941406-0.6269531,1.4375
	c-0.1035156,0.1474609-0.2695313,0.2558594-0.4052734,0.4052734s-0.2392578,0.3320313-0.3691406,0.4423828
	c-0.1025391,0.0869141-0.2421875,0.1279297-0.3681641,0.2207031c-0.1083984,0.0791016-0.1816406,0.1982422-0.2949219,0.2578125
	c-0.4501953,0.2373047-1.0068359,0.1699219-1.5107422,0.4423828c-0.2412109,1.6142578,0.2011719,3.9121094-0.4052734,5.1601563
	c-0.0292969-1.6396484-0.1777344-3.4570313-0.0742188-5.1972656C3.0058594,13.5732422,2,13.0839844,1.2998047,12.3837891
	c-0.4091797-0.4091797-0.671875-0.7890625-0.9208984-1.4375c-0.1455078-0.3759766-0.3330078-0.7822266-0.3691406-1.1054688
	C-0.0097656,9.6660156-0.0078125,9.3896484,0.0839844,9.2880859z"/>
</svg>
