<?xml version="1.0" encoding="utf-8"?>
<!-- Generator: Adobe Illustrator 15.1.0, SVG Export Plug-In  -->
<!DOCTYPE svg [
	<!ENTITY ns_flows "http://ns.adobe.com/Flows/1.0/">
]>
<svg version="1.2" baseProfile="tiny"
	 xmlns="http://www.w3.org/2000/svg" xmlns:xlink="http://www.w3.org/1999/xlink" xmlns:a="http://ns.adobe.com/AdobeSVGViewerExtensions/3.0/"
	 x="0px" y="0px" width="9px" height="21px" viewBox="-0.7314453 -0.5429688 9 21" xml:space="preserve">
<defs>
</defs>
<path fill-rule="evenodd" d="M3.6865234,0c-0.140625,0.3466797-0.4902344,0.4775391-0.5527344,0.9208984
	C2.9921875,1.9394531,3.4169922,3.1074219,3.8349609,3.6845703c0.25-0.1044922,0.3974609-0.3710938,0.5888672-0.6259766
	c0.1630859-0.2167969,0.4238281-0.4433594,0.5166016-0.7001953c0.21875-0.6083984,0-1.3505859-0.0371094-2.0644531
	c0.4443359,0.3808594,0.6113281,1.1914063,0.515625,2.0273438C5.3955078,2.5283203,5.3945313,2.7636719,5.3447266,2.9111328
	C5.3154297,3,5.1845703,3.0986328,5.1240234,3.2060547C4.9443359,3.5244141,4.7792969,3.9033203,4.5712891,4.1640625
	c0.3671875,0.6884766,0.8671875,1.2460938,1.2167969,1.953125C5.9472656,6.0927734,5.9853516,5.9472656,6.15625,5.9335938
	c0.3984375-1.1308594,0.4912109-2.6171875,0.4423828-4.0908203C6.9433594,2.0976563,6.9121094,2.4140625,7.0400391,2.984375
	c0.0957031,0.4199219,0.1933594,0.9111328,0.1484375,1.5117188C7.1455078,5.0634766,7.015625,5.7714844,6.8193359,6.1542969
	C6.7324219,6.3242188,6.3427734,6.5888672,6.3037109,6.78125C6.2675781,6.9589844,6.4111328,7.5605469,6.4511719,7.8125
	c0.1005859,0.6455078,0.2216797,1.2158203,0.1845703,2.0644531c-0.0351563,0.7851563-0.2148438,1.1083984-0.4433594,1.7314453
	c0.5019531,0.6328125,1.1386719,0.9384766,1.4746094,1.8798828c0.2753906,0.7724609,0.625,1.8808594,0.2949219,2.875
	c-0.1542969-0.2841797-0.1787109-0.6181641-0.2578125-0.921875c-0.1513672-0.5810547-0.3925781-1.1308594-0.6640625-1.6582031
	C6.7978516,13.3125,6.5810547,12.8154297,6.0458984,12.640625c-0.3417969,0.3730469-0.5214844,0.8759766-0.8105469,1.2900391
	c-0.140625,0.2001953-0.3398438,0.3359375-0.4433594,0.5527344c0.3378906,0.4443359,0.7734375,0.9794922,0.9589844,1.6582031
	c0.2539063,0.9355469,0.1494141,2.2548828,0,3.1699219c-0.1279297-0.2851563-0.1464844-0.6728516-0.1845703-1.0322266
	s-0.0576172-0.7382813-0.1474609-1.0683594c-0.0878906-0.3203125-0.234375-0.6279297-0.3320313-0.921875
	c-0.1015625-0.3085938-0.1933594-0.6308594-0.4414063-0.8105469c-0.1972656,0.4550781-0.1816406,1.0029297-0.2216797,1.5478516
	c-0.0732422,0.984375-0.1767578,2.1669922-0.2216797,3.2431641c-0.2519531-1.4785156-0.46875-2.9951172-0.4042969-4.7910156
	c-0.2285156,0.1064453-0.3554688,0.3984375-0.5166016,0.6269531c-0.1513672,0.2128906-0.3681641,0.4521484-0.4423828,0.7001953
	c-0.0546875,0.1826172-0.0410156,0.4667969-0.0732422,0.7001953c-0.0537109,0.3828125-0.0771484,0.6650391-0.1103516,1.1425781
	c-0.0117188,0.1708984-0.0117188,0.3896484-0.1484375,0.515625c-0.0771484-1.0195313-0.3662109-2.0947266-0.0361328-2.9482422
	c0.2119141-0.546875,0.7333984-1.125,1.0322266-1.6220703c-0.2910156-0.8525391-0.8242188-1.4609375-1.1054688-2.3212891
	c-0.84375,0.2412109-1.0615234,0.9619141-1.5488281,1.6953125c-0.3378906,0.5087891-0.6484375,0.8535156-0.6630859,1.6210938
	c-0.1337891-0.1064453-0.0869141-0.3037109-0.1103516-0.4423828c-0.0292969-0.1728516-0.0839844-0.3046875-0.0742188-0.4785156
	c0.0126953-0.2207031,0.1601563-0.7275391,0.2578125-0.9951172c0.3164063-0.8632813,1.1054688-1.5234375,1.5859375-2.1748047
	c0.1425781-1.4111328-0.1894531-2.9433594,0.0732422-4.1279297C1.9501953,7.2236328,2.0361328,7.046875,2.0283203,6.9287109
	c-0.0273438-0.4023438-0.5371094-0.75-0.6630859-1.0693359C1.1689453,5.3583984,1.1826172,4.4716797,1.2177734,3.7587891
	c0.0351563-0.7060547,0.1523438-1.1816406,0.3681641-1.6953125C1.7275391,3.078125,1.6572266,4.2763672,1.8808594,5.2333984
	C1.9726563,5.625,2.0908203,5.9365234,2.3603516,6.1542969c0.2490234-0.671875,0.3837891-1.4589844,0.9580078-1.8056641
	C3.0634766,3.5068359,2.3310547,2.5136719,2.5810547,1.2529297c0.0322266-0.1621094,0.265625-0.6044922,0.4423828-0.8476563
	C3.1689453,0.2050781,3.3486328,0.0908203,3.6132813,0C3.6376953,0,3.6621094,0,3.6865234,0z M3.7607422,7.4443359
	c0.5351563,0.1083984,1.4199219-0.3808594,1.4746094-0.5898438C5.2607422,6.7558594,5.1904297,6.5205078,5.1611328,6.375
	c-0.03125-0.1513672-0.0947266-0.3173828-0.1113281-0.4785156C4.6474609,5.5615234,4.5849609,4.8876953,3.9814453,4.7539063
	C3.5957031,5.0283203,3.4423828,5.4550781,3.2080078,5.8964844C3.0595703,6.1738281,2.8603516,6.4775391,2.9130859,6.8544922
	C3.1552734,7.0136719,3.4443359,7.3798828,3.7607422,7.4443359z M5.5664063,7.5175781
	C5.2470703,7.6279297,4.9384766,7.7509766,4.7919922,8.0341797c0.2490234,0.2304688,0.59375,0.3642578,0.8115234,0.6259766
	C5.7939453,8.3886719,5.7304688,7.7617188,5.5664063,7.5175781z M2.8759766,7.7392578
	C2.7216797,7.9287109,2.5517578,8.2988281,2.6552734,8.6240234c0.1777344-0.2890625,0.5332031-0.4003906,0.6992188-0.7001953
	C3.2294922,7.828125,3.0712891,7.765625,2.8759766,7.7392578z M4.1289063,8.3291016
	C3.8271484,8.3564453,3.4736328,8.6142578,3.1337891,8.6972656c-0.2460938,0.2910156-0.515625,0.5644531-0.4414063,0.9951172
	c0.0898438,0.5341797,1.0136719,1.0830078,1.7314453,0.9580078c0.2167969-0.0371094,0.3701172-0.2246094,0.5898438-0.2207031
	c0.1494141-0.2607422,0.5859375-0.4394531,0.6259766-0.8105469c0.0292969-0.2646484-0.1171875-0.375-0.1835938-0.6640625
	C5.0390625,8.7636719,4.6806641,8.2783203,4.1289063,8.3291016z M2.8017578,11.2773438
	c0.2480469-0.109375,0.5488281-0.1650391,0.8115234-0.2578125c-0.4462891-0.1308594-0.5478516-0.6083984-0.9951172-0.7373047
	C2.5771484,10.7158203,2.6621094,11.0244141,2.8017578,11.2773438z M4.71875,11.0195313
	c0.2871094,0.0810547,0.3740234,0.3632813,0.7744141,0.3310547c0.1660156-0.2167969,0.3212891-0.8369141,0.0732422-1.03125
	C5.4003906,10.6689453,4.9443359,10.7294922,4.71875,11.0195313z M3.0966797,12.0507813
	c0.0859375,0.7138672,0.3632813,1.234375,0.6640625,1.7324219c0-0.7363281,0.2167969-1.2568359,0.1474609-2.0634766
	C3.5234375,11.6103516,3.2265625,11.7949219,3.0966797,12.0507813z M4.4970703,11.7197266
	c-0.2519531,0.5576172-0.1855469,1.4345703-0.2949219,2.1376953c0.203125-0.1708984,0.46875-0.328125,0.6269531-0.5537109
	c0.0742188-0.1044922,0.0703125-0.2558594,0.1474609-0.3681641c0.140625-0.203125,0.4248047-0.3349609,0.4052734-0.6269531
	C5.2216797,11.9775391,4.9814453,11.7275391,4.4970703,11.7197266z"/>
</svg>
