<?xml version="1.0" encoding="utf-8"?>
<!-- Generator: Adobe Illustrator 15.1.0, SVG Export Plug-In  -->
<!DOCTYPE svg [
	<!ENTITY ns_flows "http://ns.adobe.com/Flows/1.0/">
]>
<svg version="1.2" baseProfile="tiny"
	 xmlns="http://www.w3.org/2000/svg" xmlns:xlink="http://www.w3.org/1999/xlink" xmlns:a="http://ns.adobe.com/AdobeSVGViewerExtensions/3.0/"
	 x="0px" y="0px" width="15px" height="20px" viewBox="-0.1733398 -0.4638672 15 20" xml:space="preserve">
<defs>
</defs>
<path fill-rule="evenodd" d="M6.8950195,0c0.0244141,0,0.0488281,0,0.0732422,0
	c0.4287109,0.7011719,0.6435547,1.4960938,0.9580078,2.2480469c0.9287109,2.2138672,1.8457031,4.5517578,2.7275391,6.8916016
	c0.2988281,0.7929688,0.5253906,1.5898438,0.8476563,2.359375c0.9179688,2.1933594,1.9882813,4.4833984,2.5429688,7.0390625
	c-0.8261719,0.1748047-1.7070313,0.1103516-2.5800781,0.1103516c-1.7050781,0-3.4501953,0.0371094-5.1962891-0.0732422
	c-0.8759766-0.0556641-1.7431641-0.0390625-2.5800781-0.0742188c-0.6484375-0.0273438-1.2900391-0.1425781-1.9160156-0.2207031
	c-0.6220703-0.0771484-1.2548828-0.1005859-1.7695313-0.3691406c-0.0263672-0.3603516,0.1904297-0.6132813,0.2949219-0.9208984
	c0.0712891-0.2089844,0.1005859-0.4550781,0.1845703-0.7001953c0.2294922-0.6660156,0.6025391-1.3037109,0.8476563-1.9902344
	s0.5292969-1.3574219,0.7373047-2.0634766c0.4033203-1.3759766,0.9179688-2.7509766,1.4736328-4.1279297
	c0.9208984-2.2792969,1.7783203-4.7119141,2.7646484-7.0400391C6.4995117,0.6103516,6.597168,0.2060547,6.8950195,0z
	 M5.6782227,3.4648438C5.4663086,4.0761719,5.3100586,4.6992188,5.0883789,5.34375
	C4.6694336,6.5703125,4.1333008,7.7402344,3.6879883,8.8818359c0.3017578,0.0263672,0.5644531,0.0625,0.8115234-0.0371094
	c0.6171875-1.1035156,0.8525391-2.5097656,1.3261719-3.7216797c0.1484375-0.3789063,0.3349609-0.8662109,0.5166016-1.1796875
	c0.0878906-0.1523438,0.2441406-0.2382813,0.2939453-0.4052734c0.1337891-0.4453125,0.0654297-1.4833984-0.0361328-1.8056641
	C6.2543945,2.2744141,5.8920898,2.8496094,5.6782227,3.4648438z M7.0786133,3.4277344
	C7.1176758,3.734375,7.4311523,4.1669922,7.5952148,4.5332031C8.2192383,5.9287109,8.7075195,7.3652344,9.105957,8.8447266
	c0.2753906,0.0322266,0.4804688,0.1347656,0.8105469,0.1113281C9.5092773,7.4140625,8.965332,5.9082031,8.4057617,4.5332031
	c-0.1933594-0.4736328-0.3359375-1.0029297-0.5527344-1.4375C7.762207,2.9140625,7.5932617,2.7363281,7.4838867,2.5429688
	C7.355957,2.3154297,7.2641602,2.0058594,7.1157227,1.8798828C7.2016602,2.3886719,7.0170898,2.9423828,7.0786133,3.4277344z
	 M5.1625977,8.6240234c0.2519531,0.2763672,0.9316406,0.2373047,1.4003906,0.1845703
	c0.2148438-1.296875,0.2001953-3.0195313,0.1474609-4.4599609C5.9799805,5.5595703,5.5834961,7.1044922,5.1625977,8.6240234z
	 M7.1157227,8.8085938C7.5551758,8.8310547,8.2514648,8.921875,8.6264648,8.7714844
	c0.1191406-0.3720703-0.0966797-0.7675781-0.2207031-1.1054688C8.003418,6.5761719,7.5639648,5.5146484,7.1157227,4.5332031
	c-0.0078125-0.0283203-0.03125-0.0429688-0.0732422-0.0371094C7.159668,5.8701172,7.0249023,7.3603516,7.1157227,8.8085938z
	 M4.277832,9.5458984c0.0654297,0.2275391,0.2714844,0.4277344,0.4794922,0.6630859
	c0.1669922,0.1894531,0.3691406,0.4511719,0.5527344,0.5898438c0.1826172,0.1367188,0.4433594,0.2333984,0.6630859,0.3681641
	c0.2548828,0.15625,0.4941406,0.3388672,0.7001953,0.3681641c0.4873047,0.0703125,0.8964844-0.1542969,1.2529297-0.3681641
	c0.6269531-0.3759766,1.2480469-0.9414063,1.4746094-1.6582031c-0.5878906-0.125-1.3535156-0.0742188-1.9169922,0.0371094
	c-0.2910156,0.4453125-0.2587891,1.2148438-0.7734375,1.4365234c-0.3583984-0.4150391-0.4160156-1.1318359-0.8105469-1.5107422
	C5.3510742,9.4550781,4.7319336,9.5087891,4.2407227,9.4345703C4.246582,9.4785156,4.2348633,9.5390625,4.277832,9.5458984z
	 M2.987793,10.7988281c-0.1318359,0.3271484-0.2138672,0.6572266-0.3310547,0.9951172
	c-0.6748047,1.9394531-1.5449219,3.8037109-2.1748047,5.7490234c0.2119141,0.1552734,0.5976563,0.3193359,0.8476563,0.1474609
	c0.1162109-0.0800781,0.2285156-0.5419922,0.3320313-0.8476563c0.6357422-1.8955078,1.171875-3.6464844,1.9160156-5.3808594
	c0.1298828-0.3017578,0.3388672-0.6650391,0.3320313-0.8847656c-0.0107422-0.3388672-0.3769531-0.6142578-0.4794922-0.7734375
	C3.2758789,10.1494141,3.1225586,10.4667969,2.987793,10.7988281z M9.7329102,10.5771484
	c1.0927734,2.3837891,1.8964844,5.0566406,2.984375,7.4453125c0.1650391-0.0058594,0.5390625,0.09375,0.7744141,0
	c0.1376953-0.7636719-0.3652344-1.4013672-0.6269531-2.0644531c-0.2724609-0.6923828-0.4726563-1.4287109-0.7734375-2.1005859
	c-0.2958984-0.6601563-0.5966797-1.3027344-0.921875-1.953125c-0.3261719-0.6523438-0.5136719-1.3789063-0.8476563-2.0273438
	c-0.0361328,0-0.0439453-0.0292969-0.0732422-0.0371094C10.1196289,10.1289063,9.8979492,10.3251953,9.7329102,10.5771484z
	 M4.3520508,10.7617188c-0.0361328,0.1357422-0.1328125,0.2119141-0.1113281,0.4052734
	c-0.4980469,1.0380859-0.9238281,2.1279297-1.3632813,3.2431641c-0.3310547,0.8388672-0.5566406,1.7636719-0.8476563,2.6171875
	c-0.1025391,0.3007813-0.2822266,0.5625-0.2949219,0.8837891c0.3515625,0.03125,0.6513672,0.0498047,0.9580078-0.0361328
	c0.5966797-1.6328125,1.125-3.3515625,1.6591797-4.9755859c0.1826172-0.5566406,0.4472656-1.0820313,0.5527344-1.6582031
	C4.7387695,11.0625,4.6030273,10.8544922,4.3520508,10.7617188z M11.6118164,16.0683594
	c-0.796875-1.7373047-1.4345703-3.4521484-2.1738281-5.2333984c-0.0244141,0-0.0498047,0-0.0742188,0
	c-0.0800781,0.1982422-0.3828125,0.3115234-0.4052734,0.5527344c-0.0136719,0.1513672,0.2041016,0.5488281,0.2949219,0.8115234
	c0.1074219,0.3115234,0.1855469,0.6162109,0.2578125,0.8476563c0.4658203,1.5,0.9824219,2.8173828,1.4375,4.1640625
	c0.0917969,0.2714844,0.1337891,0.5976563,0.3681641,0.7744141c0.2802734,0.0830078,0.7744141,0.0615234,0.921875-0.1103516
	C12.175293,17.2119141,11.8706055,16.6308594,11.6118164,16.0683594z M5.199707,11.4619141
	c-0.1787109,0.5859375-0.3818359,1.0478516-0.5898438,1.6220703c-0.1708984,0.4707031-0.2880859,1.0195313-0.4794922,1.6582031
	c-0.2158203,0.7226563-0.5625,1.5546875-0.8105469,2.3583984c-0.0683594,0.2197266-0.2451172,0.6982422-0.1845703,0.8105469
	c0.1875,0.3466797,1.1630859,0.0449219,1.5478516,0.1474609c0.2949219-0.3652344,0.3154297-0.9033203,0.4052734-1.4003906
	c0.2851563-1.5693359,0.3632813-3.3261719,0.5898438-4.9013672C5.5512695,11.6259766,5.3881836,11.53125,5.199707,11.4619141z
	 M10.1381836,15.8476563c-0.5693359-1.3876953-1.0273438-2.7832031-1.4746094-4.3125
	c-0.0019531-0.0224609-0.0058594-0.0429688-0.0371094-0.0361328C8.4370117,11.4814453,8.090332,11.625,7.9633789,11.7939453
	c0.4414063,2.0644531,0.7539063,4.2578125,1.2158203,6.3017578c0.5712891,0.0126953,1.1904297-0.0205078,1.6220703-0.0371094
	C10.8579102,17.1435547,10.4165039,16.5283203,10.1381836,15.8476563z M5.2358398,17.9111328
	c0.2382813,0.2685547,1,0.2011719,1.4375,0.1474609c0.3261719-0.4521484,0.1943359-1.0878906,0.2216797-1.6953125
	c0.0625-1.421875-0.0751953-3.0800781-0.1845703-4.3115234c-0.2539063-0.0410156-0.5263672-0.0644531-0.7001953-0.1845703
	C5.7768555,13.9072266,5.434082,15.8369141,5.2358398,17.9111328z M7.1157227,12.0517578
	c0.109375,2.0029297-0.0390625,4.1533203,0.1474609,6.0068359c0.4746094,0.0869141,1.0966797,0.0214844,1.5849609,0
	c-0.3925781-1.8808594-0.7773438-3.8466797-1.0693359-5.7490234C7.7602539,12.1875,7.793457,12.0126953,7.668457,11.9414063
	C7.4624023,11.9550781,7.284668,11.9990234,7.1157227,12.0517578z"/>
</svg>
